<?xml version="1.0" encoding="UTF-8" standalone="no"?>
<!-- Created with Inkscape (http://www.inkscape.org/) -->

<svg
   width="800mm"
   height="800mm"
   viewBox="0 0 800 800"
   version="1.1"
   id="svg5"
   inkscape:version="1.1 (c68e22c387, 2021-05-23)"
   sodipodi:docname="logo.svg"
   inkscape:export-filename="C:\Users\Rifat Mulla\Desktop\logo.png"
   inkscape:export-xdpi="96"
   inkscape:export-ydpi="96"
   xmlns:inkscape="http://www.inkscape.org/namespaces/inkscape"
   xmlns:sodipodi="http://sodipodi.sourceforge.net/DTD/sodipodi-0.dtd"
   xmlns="http://www.w3.org/2000/svg"
   xmlns:svg="http://www.w3.org/2000/svg">
  <sodipodi:namedview
     id="namedview7"
     pagecolor="#000000"
     bordercolor="#ffffff"
     borderopacity="1"
     inkscape:pageshadow="0"
     inkscape:pageopacity="0"
     inkscape:pagecheckerboard="true"
     inkscape:document-units="px"
     showgrid="false"
     inkscape:lockguides="false"
     units="mm"
     inkscape:zoom="0.125"
     inkscape:cx="916"
     inkscape:cy="1440"
     inkscape:window-width="1366"
     inkscape:window-height="706"
     inkscape:window-x="-8"
     inkscape:window-y="-8"
     inkscape:window-maximized="1"
     inkscape:current-layer="layer1" />
  <defs
     id="defs2">
    <rect
       x="469.5189"
       y="2455.0747"
       width="505.43558"
       height="75.40748"
       id="rect32829" />
    <rect
       x="1502.4109"
       y="1355.9295"
       width="122.13847"
       height="224.5587"
       id="rect12041" />
    <rect
       x="452.54834"
       y="2307.9965"
       width="756.9183"
       height="183.7443"
       id="rect2145" />
  </defs>
  <g
     inkscape:label="Layer 1"
     inkscape:groupmode="layer"
     id="layer1">
    <g
       id="g46471"
       transform="matrix(15.279921,0,0,15.657725,-5.66158,-3900.8796)"
       style="fill:#f39c04;fill-opacity:1">
      <path
         style="fill:#f39c04;fill-opacity:1;stroke:none;stroke-width:1.74584;stroke-miterlimit:4;stroke-dasharray:none;stroke-opacity:1"
         d="m 11.10533,263.31313 c 1.996339,2.35645 2.163338,2.57137 3.599359,5.03117 3.03336,5.47053 4.526809,12.59038 6.138666,18.74999 0.837542,3.32871 1.398867,7.82769 2.93426,7.68882 1.007077,-0.25639 1.039206,-0.25947 4.17285,-1.34547 -0.120151,0.0775 0.240863,-0.14268 0.33985,-0.214 0.107407,-0.0775 0.2261,-0.21368 0.248468,-0.46177 0.38327,-4.66326 2.678911,-12.04799 4.382964,-16.29242 2.754954,-6.26184 6.517254,-12.04186 11.343065,-16.45585 -1.84735,0.85477 -0.958495,-1.62892 -2.805845,-0.77413 -2.983996,3.66724 -7.682742,11.53278 -9.783022,15.86852 -1.553518,3.72026 -3.269088,7.35139 -4.680099,11.14685 0.396594,-1.03567 0.673007,-1.61581 0.12384,-0.21322 -1.111661,2.95433 -2.200704,3.83503 -3.123714,6.87587 0.08025,0.75469 1.655159,0.26688 2.132192,0.23282 2.084179,-1.28537 -0.193516,0.8751 1.925057,-0.33762 -1.199026,-0.79449 -0.864422,-2.44228 -1.601491,-3.82633 -2.918875,-7.44051 -5.334427,-14.07379 -7.774778,-21.72913 L 16.096236,259.831 c -2.029618,1.40644 -2.961328,2.07567 -4.990906,3.48213 z"
         id="path29775"
         sodipodi:nodetypes="cccccscccccccccccccc" />
      <path
         id="path35186"
         style="fill:#f39c04;stroke-width:17.306;fill-opacity:1"
         d="m 100.19454,950.70711 c -48.739124,0 -90.194536,38.80376 -90.19454,87.54289 4e-6,48.7391 39.510872,88.25 88.25,88.25 48.73913,0 91.37132,-38.7216 91.37132,-87.4607 -0.001,-22.3234 -3.1425,-48.64691 -20.96738,-60.23259 -3.35383,-2.1799 -10.3755,-1.4747 -11.95863,0.99602 2.31731,2.23298 -11.69105,26.14677 -0.29079,13.94056 18.50578,-19.81405 27.43338,27.10771 27.43502,46.48431 -5.4e-4,45.9426 -38.92424,82.6558 -84.866884,82.6552 -45.941879,-5e-4 -77.9405,-37.544 -83.185547,-83.1855 -6.0109917,-52.30663 70.54008,-100.63183 121.435551,-67.56253 7.67617,3.9e-4 -12.42377,-5.84938 -8.18308,-4.39032 18.46223,6.35215 -8.51053,33.32225 -27.82393,88.93415 -1.252954,3.6079 0,0 0,0 6.37764,-12.649 4.01134,-9.3741 21.60984,-39.454 10.54251,-20.34233 56.09304,-65.43191 -22.63095,-66.51749 z"
         transform="scale(0.26458333)"
         sodipodi:nodetypes="csscacscsscssccc" />
    </g>
    <text
       xml:space="preserve"
       style="font-size:10.5833px;line-height:1.25;font-family:sans-serif;letter-spacing:0px;stroke-width:0.264583"
       x="203.55246"
       y="631.61133"
       id="text11487"><tspan
         sodipodi:role="line"
         id="tspan11485"
         style="stroke-width:0.264583"
         x="203.55246"
         y="631.61133">     </tspan></text>
    <text
       xml:space="preserve"
       transform="scale(0.26458333)"
       id="text12039"
       style="font-size:40px;line-height:1.25;font-family:sans-serif;letter-spacing:0px;white-space:pre;shape-inside:url(#rect12041)"><tspan
         x="1502.4102"
         y="1392.4229"
         id="tspan1036">            </tspan></text>
    <text
       xml:space="preserve"
       style="font-size:10.5833px;line-height:1.25;font-family:sans-serif;letter-spacing:0px;stroke-width:0.264583"
       x="160.89626"
       y="695.2215"
       id="text45073"><tspan
         sodipodi:role="line"
         id="tspan45071"
         style="stroke-width:0.264583"
         x="160.89626"
         y="695.2215"> </tspan></text>
  </g>
</svg>
