<svg width="1920" height="1080" viewBox="0 0 1920 1080" fill="none" xmlns="http://www.w3.org/2000/svg">
<g clip-path="url(#clip0_509_151)">
<rect width="1920" height="1080" fill="#060C21"/>
<path d="M293.836 660.406C90.6358 905.682 1001.15 1065.77 378.789 1294.23C141.367 1229.88 -617.043 1052.5 -491.192 588.181C-365.341 123.858 -63.59 144.142 221.064 147.065C596.639 150.922 573.39 369.101 293.836 660.406Z" fill="#AC3FFF" fill-opacity="0.17"/>
<circle cx="544.372" cy="581.335" r="4.07253" fill="#AC3FFF" fill-opacity="0.17"/>
<circle cx="594.406" cy="581.335" r="4.07253" fill="#AC3FFF" fill-opacity="0.17"/>
<circle cx="644.441" cy="581.335" r="4.07253" fill="#AC3FFF" fill-opacity="0.17"/>
<circle cx="694.474" cy="581.335" r="4.07253" fill="#AC3FFF" fill-opacity="0.17"/>
<circle cx="544.372" cy="631.369" r="4.07253" fill="#AC3FFF" fill-opacity="0.17"/>
<circle cx="594.406" cy="631.368" r="4.07253" fill="#AC3FFF" fill-opacity="0.17"/>
<circle cx="644.44" cy="631.368" r="4.07253" fill="#AC3FFF" fill-opacity="0.17"/>
<circle cx="694.474" cy="631.368" r="4.07253" fill="#AC3FFF" fill-opacity="0.17"/>
<circle cx="544.372" cy="684.893" r="4.07253" fill="#AC3FFF" fill-opacity="0.17"/>
<circle cx="594.406" cy="684.893" r="4.07253" fill="#AC3FFF" fill-opacity="0.17"/>
<circle cx="644.44" cy="684.893" r="4.07253" fill="#AC3FFF" fill-opacity="0.17"/>
<circle cx="694.474" cy="684.893" r="4.07253" fill="#AC3FFF" fill-opacity="0.17"/>
<circle cx="544.372" cy="734.927" r="4.07253" fill="#AC3FFF" fill-opacity="0.17"/>
<circle cx="594.406" cy="734.927" r="4.07253" fill="#AC3FFF" fill-opacity="0.17"/>
<circle cx="644.44" cy="734.927" r="4.07253" fill="#AC3FFF" fill-opacity="0.17"/>
<circle cx="694.474" cy="734.927" r="4.07253" fill="#AC3FFF" fill-opacity="0.17"/>
<circle cx="745.671" cy="581.335" r="4.07253" fill="#AC3FFF" fill-opacity="0.17"/>
<circle cx="795.705" cy="581.335" r="4.07253" fill="#AC3FFF" fill-opacity="0.17"/>
<circle cx="845.74" cy="581.335" r="4.07253" fill="#AC3FFF" fill-opacity="0.17"/>
<circle cx="895.773" cy="581.335" r="4.07253" fill="#AC3FFF" fill-opacity="0.17"/>
<circle cx="745.671" cy="631.369" r="4.07253" fill="#AC3FFF" fill-opacity="0.17"/>
<circle cx="795.705" cy="631.368" r="4.07253" fill="#AC3FFF" fill-opacity="0.17"/>
<circle cx="845.74" cy="631.368" r="4.07253" fill="#AC3FFF" fill-opacity="0.17"/>
<circle cx="895.773" cy="631.368" r="4.07253" fill="#AC3FFF" fill-opacity="0.17"/>
<circle cx="745.671" cy="684.893" r="4.07253" fill="#AC3FFF" fill-opacity="0.17"/>
<circle cx="795.705" cy="684.893" r="4.07253" fill="#AC3FFF" fill-opacity="0.17"/>
<circle cx="845.74" cy="684.893" r="4.07253" fill="#AC3FFF" fill-opacity="0.17"/>
<circle cx="895.773" cy="684.893" r="4.07253" fill="#AC3FFF" fill-opacity="0.17"/>
<circle cx="745.671" cy="734.927" r="4.07253" fill="#AC3FFF" fill-opacity="0.17"/>
<circle cx="795.705" cy="734.927" r="4.07253" fill="#AC3FFF" fill-opacity="0.17"/>
<circle cx="845.74" cy="734.927" r="4.07253" fill="#AC3FFF" fill-opacity="0.17"/>
<circle cx="895.773" cy="734.927" r="4.07253" fill="#AC3FFF" fill-opacity="0.17"/>
<circle cx="343.073" cy="581.335" r="4.07253" fill="#AC3FFF" fill-opacity="0.17"/>
<circle cx="393.107" cy="581.335" r="4.07253" fill="#AC3FFF" fill-opacity="0.17"/>
<circle cx="443.141" cy="581.335" r="4.07253" fill="#AC3FFF" fill-opacity="0.17"/>
<circle cx="493.174" cy="581.335" r="4.07253" fill="#AC3FFF" fill-opacity="0.17"/>
<circle cx="343.073" cy="631.369" r="4.07253" fill="#AC3FFF" fill-opacity="0.17"/>
<circle cx="393.107" cy="631.369" r="4.07253" fill="#AC3FFF" fill-opacity="0.17"/>
<circle cx="443.141" cy="631.369" r="4.07253" fill="#AC3FFF" fill-opacity="0.17"/>
<circle cx="493.174" cy="631.369" r="4.07253" fill="#AC3FFF" fill-opacity="0.17"/>
<circle cx="343.073" cy="684.893" r="4.07253" fill="#AC3FFF" fill-opacity="0.17"/>
<circle cx="393.107" cy="684.893" r="4.07253" fill="#AC3FFF" fill-opacity="0.17"/>
<circle cx="443.141" cy="684.893" r="4.07253" fill="#AC3FFF" fill-opacity="0.17"/>
<circle cx="493.174" cy="684.893" r="4.07253" fill="#AC3FFF" fill-opacity="0.17"/>
<circle cx="343.073" cy="734.927" r="4.07253" fill="#AC3FFF" fill-opacity="0.17"/>
<circle cx="393.107" cy="734.927" r="4.07253" fill="#AC3FFF" fill-opacity="0.17"/>
<circle cx="443.141" cy="734.927" r="4.07253" fill="#AC3FFF" fill-opacity="0.17"/>
<circle cx="493.174" cy="734.927" r="4.07253" fill="#AC3FFF" fill-opacity="0.17"/>
<circle cx="544.372" cy="366.073" r="4.07253" fill="#AC3FFF" fill-opacity="0.17"/>
<circle cx="594.406" cy="366.073" r="4.07253" fill="#AC3FFF" fill-opacity="0.17"/>
<circle cx="644.441" cy="366.073" r="4.07253" fill="#AC3FFF" fill-opacity="0.17"/>
<circle cx="694.474" cy="366.073" r="4.07253" fill="#AC3FFF" fill-opacity="0.17"/>
<circle cx="544.372" cy="416.106" r="4.07253" fill="#AC3FFF" fill-opacity="0.17"/>
<circle cx="594.406" cy="416.106" r="4.07253" fill="#AC3FFF" fill-opacity="0.17"/>
<circle cx="644.44" cy="416.106" r="4.07253" fill="#AC3FFF" fill-opacity="0.17"/>
<circle cx="694.474" cy="416.106" r="4.07253" fill="#AC3FFF" fill-opacity="0.17"/>
<circle cx="544.372" cy="469.631" r="4.07253" fill="#AC3FFF" fill-opacity="0.17"/>
<circle cx="594.406" cy="469.631" r="4.07253" fill="#AC3FFF" fill-opacity="0.17"/>
<circle cx="644.44" cy="469.631" r="4.07253" fill="#AC3FFF" fill-opacity="0.17"/>
<circle cx="694.474" cy="469.631" r="4.07253" fill="#AC3FFF" fill-opacity="0.17"/>
<circle cx="544.372" cy="519.665" r="4.07253" fill="#AC3FFF" fill-opacity="0.17"/>
<circle cx="594.406" cy="519.665" r="4.07253" fill="#AC3FFF" fill-opacity="0.17"/>
<circle cx="644.44" cy="519.665" r="4.07253" fill="#AC3FFF" fill-opacity="0.17"/>
<circle cx="694.474" cy="519.665" r="4.07253" fill="#AC3FFF" fill-opacity="0.17"/>
<circle cx="745.671" cy="366.073" r="4.07253" fill="#AC3FFF" fill-opacity="0.17"/>
<circle cx="795.705" cy="366.073" r="4.07253" fill="#AC3FFF" fill-opacity="0.17"/>
<circle cx="845.74" cy="366.073" r="4.07253" fill="#AC3FFF" fill-opacity="0.17"/>
<circle cx="895.773" cy="366.073" r="4.07253" fill="#AC3FFF" fill-opacity="0.17"/>
<circle cx="745.671" cy="416.106" r="4.07253" fill="#AC3FFF" fill-opacity="0.17"/>
<circle cx="795.705" cy="416.106" r="4.07253" fill="#AC3FFF" fill-opacity="0.17"/>
<circle cx="845.74" cy="416.106" r="4.07253" fill="#AC3FFF" fill-opacity="0.17"/>
<circle cx="895.773" cy="416.106" r="4.07253" fill="#AC3FFF" fill-opacity="0.17"/>
<circle cx="745.671" cy="469.631" r="4.07253" fill="#AC3FFF" fill-opacity="0.17"/>
<circle cx="795.705" cy="469.631" r="4.07253" fill="#AC3FFF" fill-opacity="0.17"/>
<circle cx="845.74" cy="469.631" r="4.07253" fill="#AC3FFF" fill-opacity="0.17"/>
<circle cx="895.773" cy="469.631" r="4.07253" fill="#AC3FFF" fill-opacity="0.17"/>
<circle cx="745.671" cy="519.665" r="4.07253" fill="#AC3FFF" fill-opacity="0.17"/>
<circle cx="795.705" cy="519.665" r="4.07253" fill="#AC3FFF" fill-opacity="0.17"/>
<circle cx="845.74" cy="519.665" r="4.07253" fill="#AC3FFF" fill-opacity="0.17"/>
<circle cx="895.773" cy="519.665" r="4.07253" fill="#AC3FFF" fill-opacity="0.17"/>
<circle cx="343.073" cy="366.073" r="4.07253" fill="#AC3FFF" fill-opacity="0.17"/>
<circle cx="393.107" cy="366.073" r="4.07253" fill="#AC3FFF" fill-opacity="0.17"/>
<circle cx="443.141" cy="366.073" r="4.07253" fill="#AC3FFF" fill-opacity="0.17"/>
<circle cx="493.174" cy="366.073" r="4.07253" fill="#AC3FFF" fill-opacity="0.17"/>
<circle cx="343.073" cy="416.106" r="4.07253" fill="#AC3FFF" fill-opacity="0.17"/>
<circle cx="393.107" cy="416.106" r="4.07253" fill="#AC3FFF" fill-opacity="0.17"/>
<circle cx="443.141" cy="416.106" r="4.07253" fill="#AC3FFF" fill-opacity="0.17"/>
<circle cx="493.174" cy="416.106" r="4.07253" fill="#AC3FFF" fill-opacity="0.17"/>
<circle cx="343.073" cy="469.631" r="4.07253" fill="#AC3FFF" fill-opacity="0.17"/>
<circle cx="393.107" cy="469.631" r="4.07253" fill="#AC3FFF" fill-opacity="0.17"/>
<circle cx="443.141" cy="469.631" r="4.07253" fill="#AC3FFF" fill-opacity="0.17"/>
<circle cx="493.174" cy="469.631" r="4.07253" fill="#AC3FFF" fill-opacity="0.17"/>
<circle cx="343.073" cy="519.665" r="4.07253" fill="#AC3FFF" fill-opacity="0.17"/>
<circle cx="393.107" cy="519.665" r="4.07253" fill="#AC3FFF" fill-opacity="0.17"/>
<circle cx="443.141" cy="519.665" r="4.07253" fill="#AC3FFF" fill-opacity="0.17"/>
<circle cx="493.174" cy="519.665" r="4.07253" fill="#AC3FFF" fill-opacity="0.17"/>
<circle cx="1163.4" cy="581.335" r="4.07253" fill="#AC3FFF" fill-opacity="0.17"/>
<circle cx="1213.43" cy="581.335" r="4.07253" fill="#AC3FFF" fill-opacity="0.17"/>
<circle cx="1263.47" cy="581.335" r="4.07253" fill="#AC3FFF" fill-opacity="0.17"/>
<circle cx="1313.5" cy="581.335" r="4.07253" fill="#AC3FFF" fill-opacity="0.17"/>
<circle cx="1163.4" cy="631.369" r="4.07253" fill="#AC3FFF" fill-opacity="0.17"/>
<circle cx="1213.43" cy="631.368" r="4.07253" fill="#AC3FFF" fill-opacity="0.17"/>
<circle cx="1263.47" cy="631.368" r="4.07253" fill="#AC3FFF" fill-opacity="0.17"/>
<circle cx="1313.5" cy="631.368" r="4.07253" fill="#AC3FFF" fill-opacity="0.17"/>
<circle cx="1163.4" cy="684.893" r="4.07253" fill="#AC3FFF" fill-opacity="0.17"/>
<circle cx="1213.43" cy="684.893" r="4.07253" fill="#AC3FFF" fill-opacity="0.17"/>
<circle cx="1263.47" cy="684.893" r="4.07253" fill="#AC3FFF" fill-opacity="0.17"/>
<circle cx="1313.5" cy="684.893" r="4.07253" fill="#AC3FFF" fill-opacity="0.17"/>
<circle cx="1163.4" cy="734.927" r="4.07253" fill="#AC3FFF" fill-opacity="0.17"/>
<circle cx="1213.43" cy="734.927" r="4.07253" fill="#AC3FFF" fill-opacity="0.17"/>
<circle cx="1263.47" cy="734.927" r="4.07253" fill="#AC3FFF" fill-opacity="0.17"/>
<circle cx="1313.5" cy="734.927" r="4.07253" fill="#AC3FFF" fill-opacity="0.17"/>
<circle cx="1364.7" cy="581.335" r="4.07253" fill="#AC3FFF" fill-opacity="0.17"/>
<circle cx="1414.73" cy="581.335" r="4.07253" fill="#AC3FFF" fill-opacity="0.17"/>
<circle cx="1464.76" cy="581.335" r="4.07253" fill="#AC3FFF" fill-opacity="0.17"/>
<circle cx="1364.7" cy="631.369" r="4.07253" fill="#AC3FFF" fill-opacity="0.17"/>
<circle cx="1414.73" cy="631.368" r="4.07253" fill="#AC3FFF" fill-opacity="0.17"/>
<circle cx="1464.76" cy="631.368" r="4.07253" fill="#AC3FFF" fill-opacity="0.17"/>
<circle cx="1364.7" cy="684.893" r="4.07253" fill="#AC3FFF" fill-opacity="0.17"/>
<circle cx="1414.73" cy="684.893" r="4.07253" fill="#AC3FFF" fill-opacity="0.17"/>
<circle cx="1464.76" cy="684.893" r="4.07253" fill="#AC3FFF" fill-opacity="0.17"/>
<circle cx="1364.7" cy="734.927" r="4.07253" fill="#AC3FFF" fill-opacity="0.17"/>
<circle cx="1414.73" cy="734.927" r="4.07253" fill="#AC3FFF" fill-opacity="0.17"/>
<circle cx="1464.76" cy="734.927" r="4.07253" fill="#AC3FFF" fill-opacity="0.17"/>
<circle cx="962.097" cy="581.335" r="4.07253" fill="#AC3FFF" fill-opacity="0.17"/>
<circle cx="1012.13" cy="581.335" r="4.07253" fill="#AC3FFF" fill-opacity="0.17"/>
<circle cx="1062.16" cy="581.335" r="4.07253" fill="#AC3FFF" fill-opacity="0.17"/>
<circle cx="1112.2" cy="581.335" r="4.07253" fill="#AC3FFF" fill-opacity="0.17"/>
<circle cx="962.097" cy="631.369" r="4.07253" fill="#AC3FFF" fill-opacity="0.17"/>
<circle cx="1012.13" cy="631.369" r="4.07253" fill="#AC3FFF" fill-opacity="0.17"/>
<circle cx="1062.16" cy="631.369" r="4.07253" fill="#AC3FFF" fill-opacity="0.17"/>
<circle cx="1112.2" cy="631.369" r="4.07253" fill="#AC3FFF" fill-opacity="0.17"/>
<circle cx="962.097" cy="684.893" r="4.07253" fill="#AC3FFF" fill-opacity="0.17"/>
<circle cx="1012.13" cy="684.893" r="4.07253" fill="#AC3FFF" fill-opacity="0.17"/>
<circle cx="1062.16" cy="684.893" r="4.07253" fill="#AC3FFF" fill-opacity="0.17"/>
<circle cx="1112.2" cy="684.893" r="4.07253" fill="#AC3FFF" fill-opacity="0.17"/>
<circle cx="962.097" cy="734.927" r="4.07253" fill="#AC3FFF" fill-opacity="0.17"/>
<circle cx="1012.13" cy="734.927" r="4.07253" fill="#AC3FFF" fill-opacity="0.17"/>
<circle cx="1062.16" cy="734.927" r="4.07253" fill="#AC3FFF" fill-opacity="0.17"/>
<circle cx="1112.2" cy="734.927" r="4.07253" fill="#AC3FFF" fill-opacity="0.17"/>
<circle cx="1163.4" cy="366.073" r="4.07253" fill="#AC3FFF" fill-opacity="0.17"/>
<circle cx="1213.43" cy="366.073" r="4.07253" fill="#AC3FFF" fill-opacity="0.17"/>
<circle cx="1263.47" cy="366.073" r="4.07253" fill="#AC3FFF" fill-opacity="0.17"/>
<circle cx="1313.5" cy="366.073" r="4.07253" fill="#AC3FFF" fill-opacity="0.17"/>
<circle cx="1163.4" cy="416.106" r="4.07253" fill="#AC3FFF" fill-opacity="0.17"/>
<circle cx="1213.43" cy="416.106" r="4.07253" fill="#AC3FFF" fill-opacity="0.17"/>
<circle cx="1263.47" cy="416.106" r="4.07253" fill="#AC3FFF" fill-opacity="0.17"/>
<circle cx="1313.5" cy="416.106" r="4.07253" fill="#AC3FFF" fill-opacity="0.17"/>
<circle cx="1163.4" cy="469.631" r="4.07253" fill="#AC3FFF" fill-opacity="0.17"/>
<circle cx="1213.43" cy="469.631" r="4.07253" fill="#AC3FFF" fill-opacity="0.17"/>
<circle cx="1263.47" cy="469.631" r="4.07253" fill="#AC3FFF" fill-opacity="0.17"/>
<circle cx="1313.5" cy="469.631" r="4.07253" fill="#AC3FFF" fill-opacity="0.17"/>
<circle cx="1163.4" cy="519.665" r="4.07253" fill="#AC3FFF" fill-opacity="0.17"/>
<circle cx="1213.43" cy="519.665" r="4.07253" fill="#AC3FFF" fill-opacity="0.17"/>
<circle cx="1263.47" cy="519.665" r="4.07253" fill="#AC3FFF" fill-opacity="0.17"/>
<circle cx="1313.5" cy="519.665" r="4.07253" fill="#AC3FFF" fill-opacity="0.17"/>
<circle cx="1364.7" cy="366.073" r="4.07253" fill="#AC3FFF" fill-opacity="0.17"/>
<circle cx="1414.73" cy="366.073" r="4.07253" fill="#AC3FFF" fill-opacity="0.17"/>
<circle cx="1464.76" cy="366.073" r="4.07253" fill="#AC3FFF" fill-opacity="0.17"/>
<circle cx="1364.7" cy="416.106" r="4.07253" fill="#AC3FFF" fill-opacity="0.17"/>
<circle cx="1414.73" cy="416.106" r="4.07253" fill="#AC3FFF" fill-opacity="0.17"/>
<circle cx="1464.76" cy="416.106" r="4.07253" fill="#AC3FFF" fill-opacity="0.17"/>
<circle cx="1364.7" cy="469.631" r="4.07253" fill="#AC3FFF" fill-opacity="0.17"/>
<circle cx="1414.73" cy="469.631" r="4.07253" fill="#AC3FFF" fill-opacity="0.17"/>
<circle cx="1464.76" cy="469.631" r="4.07253" fill="#AC3FFF" fill-opacity="0.17"/>
<circle cx="1364.7" cy="519.665" r="4.07253" fill="#AC3FFF" fill-opacity="0.17"/>
<circle cx="1414.73" cy="519.665" r="4.07253" fill="#AC3FFF" fill-opacity="0.17"/>
<circle cx="1464.76" cy="519.665" r="4.07253" fill="#AC3FFF" fill-opacity="0.17"/>
<circle cx="962.097" cy="366.073" r="4.07253" fill="#AC3FFF" fill-opacity="0.17"/>
<circle cx="1012.13" cy="366.073" r="4.07253" fill="#AC3FFF" fill-opacity="0.17"/>
<circle cx="1062.16" cy="366.073" r="4.07253" fill="#AC3FFF" fill-opacity="0.17"/>
<circle cx="1112.2" cy="366.073" r="4.07253" fill="#AC3FFF" fill-opacity="0.17"/>
<circle cx="962.097" cy="416.106" r="4.07253" fill="#AC3FFF" fill-opacity="0.17"/>
<circle cx="1012.13" cy="416.106" r="4.07253" fill="#AC3FFF" fill-opacity="0.17"/>
<circle cx="1062.16" cy="416.106" r="4.07253" fill="#AC3FFF" fill-opacity="0.17"/>
<circle cx="1112.2" cy="416.106" r="4.07253" fill="#AC3FFF" fill-opacity="0.17"/>
<circle cx="962.097" cy="469.631" r="4.07253" fill="#AC3FFF" fill-opacity="0.17"/>
<circle cx="1012.13" cy="469.631" r="4.07253" fill="#AC3FFF" fill-opacity="0.17"/>
<circle cx="1062.16" cy="469.631" r="4.07253" fill="#AC3FFF" fill-opacity="0.17"/>
<circle cx="1112.2" cy="469.631" r="4.07253" fill="#AC3FFF" fill-opacity="0.17"/>
<circle cx="962.097" cy="519.665" r="4.07253" fill="#AC3FFF" fill-opacity="0.17"/>
<circle cx="1012.13" cy="519.665" r="4.07253" fill="#AC3FFF" fill-opacity="0.17"/>
<circle cx="1062.16" cy="519.665" r="4.07253" fill="#AC3FFF" fill-opacity="0.17"/>
<circle cx="1112.2" cy="519.665" r="4.07253" fill="#AC3FFF" fill-opacity="0.17"/>
<circle cx="90.0725" cy="71.0725" r="4.07253" fill="#AC3FFF" fill-opacity="0.17"/>
<circle cx="140.107" cy="71.0724" r="4.07253" fill="#AC3FFF" fill-opacity="0.17"/>
<circle cx="190.141" cy="71.0724" r="4.07253" fill="#AC3FFF" fill-opacity="0.17"/>
<circle cx="240.174" cy="71.0724" r="4.07253" fill="#AC3FFF" fill-opacity="0.17"/>
<circle cx="90.0725" cy="121.106" r="4.07253" fill="#AC3FFF" fill-opacity="0.17"/>
<circle cx="140.107" cy="121.106" r="4.07253" fill="#AC3FFF" fill-opacity="0.17"/>
<circle cx="190.141" cy="121.106" r="4.07253" fill="#AC3FFF" fill-opacity="0.17"/>
<circle cx="240.174" cy="121.106" r="4.07253" fill="#AC3FFF" fill-opacity="0.17"/>
<circle cx="90.0725" cy="174.631" r="4.07253" fill="#AC3FFF" fill-opacity="0.17"/>
<circle cx="140.107" cy="174.631" r="4.07253" fill="#AC3FFF" fill-opacity="0.17"/>
<circle cx="190.141" cy="174.631" r="4.07253" fill="#AC3FFF" fill-opacity="0.17"/>
<circle cx="240.174" cy="174.631" r="4.07253" fill="#AC3FFF" fill-opacity="0.17"/>
<circle cx="90.0725" cy="224.665" r="4.07253" fill="#AC3FFF" fill-opacity="0.17"/>
<circle cx="140.107" cy="224.665" r="4.07253" fill="#AC3FFF" fill-opacity="0.17"/>
<circle cx="190.141" cy="224.665" r="4.07253" fill="#AC3FFF" fill-opacity="0.17"/>
<circle cx="240.174" cy="224.665" r="4.07253" fill="#AC3FFF" fill-opacity="0.17"/>
</g>
<defs>
<clipPath id="clip0_509_151">
<rect width="1920" height="1080" fill="white"/>
</clipPath>
</defs>
</svg>
