<svg width="1441" height="833" viewBox="0 0 1441 833" fill="none" xmlns="http://www.w3.org/2000/svg">
<rect x="1" y="738" width="1440" height="95" fill="white"/>
<rect width="1440" height="833" fill="white"/>
<path d="M916.1 677.473C925.282 669.699 930.86 657.418 929.397 645.463C927.934 633.508 918.875 622.517 907.123 619.978C895.372 617.44 881.976 624.467 878.407 635.969C876.442 613.794 874.179 590.691 862.412 571.807C851.757 554.708 833.304 542.473 813.304 540.285C793.304 538.096 772.247 546.363 759.774 562.179C747.301 577.995 744.247 600.988 752.983 619.146C759.418 632.522 771.274 642.477 783.697 650.576C823.838 676.526 871.982 687.078 919.271 680.292" fill="#F2F2F2" fill-opacity="0.5"/>
<path d="M779.551 546.822C796.053 560.289 811.192 575.351 824.749 591.79C845.966 617.429 863.134 646.175 875.657 677.026C876.574 679.277 872.926 680.257 872.02 678.031C864.056 658.525 854.204 639.848 842.604 622.268C824.515 594.805 802.354 570.265 776.883 549.494C775 547.958 777.683 545.298 779.551 546.822V546.822Z" fill="white" fill-opacity="0.5"/>
<path d="M922.442 677.473C913.259 669.699 907.682 657.418 909.145 645.463C910.607 633.508 919.667 622.517 931.418 619.978C943.17 617.44 956.566 624.467 960.135 635.969C962.099 613.794 964.363 590.691 976.13 571.807C986.784 554.708 1005.24 542.473 1025.24 540.285C1045.24 538.096 1066.29 546.363 1078.77 562.179C1091.24 577.995 1094.29 600.988 1085.56 619.146C1079.12 632.522 1067.27 642.477 1054.84 650.576C1014.7 676.526 966.559 687.078 919.27 680.292" fill="#F2F2F2" fill-opacity="0.5"/>
<path d="M1058.99 546.822C1042.49 560.289 1027.35 575.351 1013.79 591.79C992.575 617.429 975.407 646.175 962.884 677.026C961.967 679.277 965.615 680.257 966.521 678.031C987.011 627.891 1019.72 583.698 1061.66 549.494C1063.54 547.958 1060.86 545.298 1058.99 546.822V546.822Z" fill="white" fill-opacity="0.5"/>
<path d="M949.69 412.691C966.677 412.691 980.448 398.894 980.448 381.874C980.448 364.854 966.677 351.057 949.69 351.057C932.703 351.057 918.932 364.854 918.932 381.874C918.932 398.894 932.703 412.691 949.69 412.691Z" fill="#F2F2F2" fill-opacity="0.5"/>
<path d="M854.855 275.644H1066.77V287.26H881.907C871.038 287.26 860.275 289.405 850.234 293.572C840.192 297.74 831.067 303.848 823.382 311.549C815.696 319.249 809.599 328.391 805.44 338.452C801.281 348.513 799.14 359.297 799.14 370.187V502.163H775.952C774.927 502.163 773.944 501.755 773.219 501.029C772.494 500.303 772.087 499.318 772.087 498.291V358.57C772.087 347.68 774.228 336.897 778.387 326.836C782.547 316.774 788.643 307.633 796.329 299.932C804.015 292.232 813.139 286.123 823.181 281.956C833.223 277.788 843.985 275.644 854.855 275.644V275.644Z" fill="#F2F2F2" fill-opacity="0.5"/>
<path d="M895.615 678.118V501.664H947.209V678.118C947.208 679.304 946.737 680.441 945.9 681.28C945.063 682.119 943.928 682.59 942.745 682.592H900.08C898.896 682.59 897.761 682.119 896.924 681.28C896.087 680.441 895.617 679.304 895.615 678.118Z" fill="#161D33" fill-opacity="0.29"/>
<path d="M761.173 498.185V354.701C761.199 331.859 770.266 309.96 786.387 293.809C802.507 277.657 824.364 268.572 847.162 268.546H1065.78V503.155H766.134C764.819 503.154 763.558 502.63 762.628 501.698C761.698 500.766 761.174 499.503 761.173 498.185ZM1063.79 270.534H847.162C824.89 270.559 803.538 279.435 787.789 295.214C772.041 310.993 763.182 332.386 763.157 354.701V498.185C763.158 498.976 763.472 499.734 764.03 500.293C764.588 500.852 765.345 501.166 766.134 501.167H1063.79V270.534Z" fill="#161D33" fill-opacity="0.29"/>
<path d="M949.69 397.78C944.955 397.775 940.416 395.888 937.068 392.533C933.719 389.179 931.836 384.631 931.831 379.886V251.646C931.83 250.856 931.516 250.098 930.958 249.539C930.4 248.98 929.643 248.665 928.854 248.664H859.4C858.085 248.663 856.824 248.138 855.894 247.207C854.964 246.275 854.441 245.011 854.439 243.694V196.971C854.441 195.653 854.964 194.389 855.894 193.458C856.824 192.526 858.085 192.002 859.4 192H962.589C963.904 192.002 965.165 192.526 966.095 193.458C967.025 194.389 967.548 195.653 967.55 196.971V379.886C967.545 384.631 965.661 389.179 962.313 392.533C958.965 395.888 954.425 397.775 949.69 397.78Z" fill="#9100FF" fill-opacity="0.13"/>
<path d="M1073.72 266.559C1088.68 266.527 1103.05 272.455 1113.66 283.037C1124.26 293.619 1130.24 307.989 1130.27 322.986V486.327H1241.4C1245.86 486.318 1250.15 488.086 1253.31 491.242C1256.47 494.398 1258.25 498.684 1258.26 503.156H1017.16V322.986C1017.19 307.989 1023.17 293.619 1033.77 283.037C1044.38 272.455 1058.75 266.527 1073.72 266.559Z" fill="#161D33" fill-opacity="0.29"/>
<path d="M1060.14 359.574L1071.85 408.043L1300.93 352.481L1289.22 304.012C1289.08 303.42 1288.79 302.872 1288.38 302.421C1287.98 301.97 1287.46 301.63 1286.88 301.432C1286.46 301.283 1286.01 301.215 1285.56 301.233L1153.14 232.538C1152.37 232.141 1151.48 232.035 1150.63 232.239C1149.78 232.443 1149.03 232.944 1148.52 233.651L1084.71 322.816L1060.65 356.44C1060.6 356.498 1060.57 356.566 1060.56 356.638C1060.54 356.71 1060.54 356.784 1060.56 356.855C1060.07 357.672 1059.92 358.649 1060.14 359.574V359.574Z" fill="white" fill-opacity="0.5"/>
<path d="M1060.56 356.855C1060.57 356.918 1060.59 356.979 1060.63 357.032C1060.66 357.086 1060.71 357.133 1060.76 357.169C1060.82 357.212 1060.89 357.241 1060.96 357.256C1061.04 357.271 1061.12 357.27 1061.19 357.254C1061.31 357.222 1061.41 357.149 1061.49 357.048L1061.57 356.934L1062.82 355.178L1085.57 323.402L1149.37 234.258C1149.73 233.753 1150.27 233.395 1150.87 233.25C1151.48 233.104 1152.11 233.181 1152.67 233.466L1284.06 301.629L1285.24 302.242C1285.28 302.262 1285.33 302.279 1285.38 302.293C1285.47 302.277 1285.56 302.268 1285.65 302.267C1285.78 302.226 1285.88 302.139 1285.94 302.024C1285.97 301.964 1285.99 301.897 1286 301.829C1286 301.761 1286 301.692 1285.98 301.627C1285.96 301.561 1285.92 301.501 1285.88 301.448C1285.84 301.395 1285.78 301.352 1285.72 301.32L1285.56 301.233L1153.14 232.538C1152.37 232.141 1151.47 232.035 1150.63 232.239C1149.78 232.443 1149.03 232.944 1148.52 233.651L1084.7 322.816L1060.65 356.44C1060.6 356.498 1060.57 356.566 1060.56 356.638C1060.54 356.71 1060.54 356.784 1060.56 356.855V356.855Z" fill="#161D33" fill-opacity="0.29"/>
<path d="M1129.36 361.797L1134.46 362.364L1172.3 366.564L1197.39 369.347L1198.87 369.512L1230.18 345.012L1231.38 344.074L1238.77 338.288L1265.08 317.704L1265.24 316.258L1274.59 231.645C1274.72 230.48 1274.38 229.312 1273.65 228.397C1272.92 227.481 1271.86 226.894 1270.69 226.763L1145.82 212.903C1144.66 212.776 1143.49 213.116 1142.58 213.848C1141.67 214.58 1141.08 215.645 1140.95 216.809L1134.35 276.493L1130.69 309.583L1127.41 339.186L1125.9 352.933L1125.45 356.916C1125.33 358.081 1125.67 359.249 1126.4 360.164C1127.13 361.079 1128.19 361.666 1129.36 361.797V361.797Z" fill="#E6E6E6" fill-opacity="0.5"/>
<path d="M1163.67 287.631L1217.76 293.634L1236.95 295.762C1237.79 295.856 1238.65 295.782 1239.47 295.544C1240.29 295.306 1241.05 294.909 1241.72 294.375C1242.38 293.842 1242.94 293.182 1243.35 292.434C1243.76 291.686 1244.02 290.864 1244.11 290.016C1244.2 289.167 1244.13 288.308 1243.89 287.488C1243.66 286.668 1243.26 285.903 1242.73 285.237C1242.19 284.57 1241.54 284.016 1240.79 283.604C1240.04 283.193 1239.22 282.932 1238.38 282.838L1214.52 280.191L1165.11 274.701C1163.39 274.512 1161.68 275.011 1160.34 276.089C1158.99 277.167 1158.13 278.735 1157.94 280.449C1157.75 282.163 1158.25 283.882 1159.32 285.229C1160.4 286.576 1161.96 287.44 1163.67 287.631Z" fill="white" fill-opacity="0.5"/>
<path d="M1160.59 311.605C1160.73 311.63 1160.87 311.655 1161.01 311.669L1223.81 318.638L1234.29 319.804C1236 319.994 1237.72 319.495 1239.06 318.417C1240.4 317.338 1241.27 315.77 1241.45 314.055C1241.64 312.341 1241.15 310.621 1240.07 309.275C1238.99 307.929 1237.43 307.066 1235.72 306.876L1220.56 305.196L1170.82 299.674L1162.45 298.744C1160.77 298.557 1159.09 299.03 1157.76 300.062C1156.43 301.094 1155.55 302.605 1155.31 304.275C1155.07 305.945 1155.48 307.644 1156.47 309.012C1157.46 310.38 1158.93 311.31 1160.59 311.605V311.605Z" fill="white" fill-opacity="0.5"/>
<path d="M1153.49 332.862C1154 333.718 1154.71 334.443 1155.55 334.982C1156.39 335.521 1157.34 335.859 1158.33 335.969L1184.07 338.825L1229.9 343.912L1229.91 343.91L1231.38 344.074L1238.77 338.288C1238.82 337.848 1238.82 337.405 1238.77 336.966C1238.62 335.49 1237.96 334.111 1236.92 333.059C1235.87 332.006 1234.5 331.342 1233.03 331.176L1226.66 330.467L1201.41 327.667L1183.23 325.647L1159.76 323.04C1158.55 322.907 1157.34 323.113 1156.24 323.636C1155.15 324.159 1154.23 324.978 1153.58 325.999C1152.92 327.021 1152.57 328.205 1152.55 329.418C1152.54 330.631 1152.86 331.823 1153.49 332.862L1153.49 332.862Z" fill="white" fill-opacity="0.5"/>
<path d="M1189.64 258.326L1203.09 259.819L1209.04 260.481L1218.02 261.476C1219.73 261.666 1221.45 261.167 1222.79 260.089C1224.13 259.01 1224.99 257.442 1225.18 255.727C1225.37 254.013 1224.87 252.293 1223.8 250.947C1222.72 249.6 1221.16 248.738 1219.45 248.548L1191.07 245.401C1189.36 245.211 1187.64 245.709 1186.3 246.786C1184.95 247.863 1184.09 249.431 1183.9 251.145C1183.71 252.859 1184.21 254.578 1185.28 255.925C1186.36 257.272 1187.92 258.135 1189.64 258.326V258.326Z" fill="white" fill-opacity="0.5"/>
<path d="M1079.58 294.325L1095.99 362.236L1123.38 367.453L1148.71 372.286L1175.89 377.467L1184.58 379.123C1185.08 379.219 1185.61 379.206 1186.11 379.084C1186.61 378.962 1187.08 378.734 1187.49 378.416L1194.46 372.964L1198.87 369.512L1230.18 345.012L1210.27 262.627C1210.08 261.808 1209.65 261.062 1209.04 260.481C1208.5 259.966 1207.85 259.595 1207.13 259.401C1206.42 259.207 1205.67 259.196 1204.94 259.37L1082.84 288.987C1081.7 289.264 1080.72 289.981 1080.11 290.982C1079.5 291.983 1079.31 293.185 1079.58 294.325V294.325Z" fill="#9100FF" fill-opacity="0.13"/>
<path d="M1117.21 348.351C1117.62 350.026 1118.67 351.471 1120.14 352.369C1121.61 353.267 1123.37 353.545 1125.04 353.141L1196.69 335.762C1198.37 335.354 1199.81 334.299 1200.7 332.827C1201.6 331.356 1201.88 329.589 1201.48 327.913C1201.46 327.83 1201.43 327.748 1201.41 327.667C1200.95 326.052 1199.88 324.676 1198.44 323.829C1196.99 322.982 1195.27 322.729 1193.64 323.123L1121.99 340.502C1120.32 340.909 1118.88 341.964 1117.98 343.436C1117.08 344.907 1116.81 346.675 1117.21 348.351Z" fill="white" fill-opacity="0.5"/>
<path d="M1123.38 367.452L1148.71 372.284L1202.38 359.269C1204.05 358.863 1205.49 357.808 1206.39 356.336C1207.28 354.864 1207.56 353.095 1207.16 351.419C1206.75 349.743 1205.7 348.297 1204.23 347.399C1202.76 346.501 1200.99 346.224 1199.32 346.63L1127.67 364.008C1126.17 364.369 1124.85 365.254 1123.95 366.505C1123.74 366.804 1123.54 367.121 1123.38 367.452Z" fill="white" fill-opacity="0.5"/>
<path d="M1175.89 377.468L1184.58 379.123C1185.09 379.22 1185.61 379.206 1186.11 379.084C1186.61 378.963 1187.09 378.735 1187.49 378.416L1194.46 372.964L1175.89 377.468Z" fill="white" fill-opacity="0.5"/>
<path d="M1131.65 311.936C1132.05 313.611 1133.11 315.056 1134.58 315.954C1136.04 316.852 1137.81 317.129 1139.48 316.725L1167.23 309.994C1168.91 309.586 1170.35 308.531 1171.24 307.059C1172.14 305.588 1172.42 303.821 1172.01 302.145C1171.8 301.244 1171.39 300.401 1170.82 299.673C1170.05 298.689 1169.02 297.947 1167.84 297.536C1166.66 297.125 1165.39 297.062 1164.18 297.355L1136.43 304.086C1134.76 304.492 1133.31 305.547 1132.42 307.019C1131.52 308.491 1131.24 310.259 1131.65 311.936V311.936Z" fill="white" fill-opacity="0.5"/>
<path d="M1148.71 372.284L1175.89 377.467L1184.58 379.124C1185.09 379.219 1185.61 379.205 1186.11 379.083C1186.61 378.961 1187.08 378.734 1187.49 378.417L1194.46 372.963L1192.02 373.557L1186.85 377.594C1186.56 377.821 1186.22 377.983 1185.87 378.07C1185.51 378.157 1185.13 378.167 1184.77 378.099L1178.34 376.874L1151.16 371.691L1148.71 372.284ZM1229.91 343.914L1230.17 345.009L1231.38 344.07L1229.91 343.914ZM1148.71 372.284L1175.89 377.467L1184.58 379.124C1185.09 379.219 1185.61 379.205 1186.11 379.083C1186.61 378.961 1187.08 378.734 1187.49 378.417L1194.46 372.963L1192.02 373.557L1186.85 377.594C1186.56 377.821 1186.22 377.983 1185.87 378.07C1185.51 378.157 1185.13 378.167 1184.77 378.099L1178.34 376.874L1151.16 371.691L1148.71 372.284ZM1148.71 372.284L1175.89 377.467L1184.58 379.124C1185.09 379.219 1185.61 379.205 1186.11 379.083C1186.61 378.961 1187.08 378.734 1187.49 378.417L1194.46 372.963L1192.02 373.557L1186.85 377.594C1186.56 377.821 1186.22 377.983 1185.87 378.07C1185.51 378.157 1185.13 378.167 1184.77 378.099L1178.34 376.874L1151.16 371.691L1148.71 372.284ZM1060.14 359.573L1090.82 486.531C1091.05 487.469 1091.64 488.278 1092.46 488.781C1093.28 489.284 1094.27 489.439 1095.21 489.213L1317.22 435.364C1318.16 435.136 1318.97 434.545 1319.47 433.721C1319.97 432.897 1320.12 431.907 1319.9 430.968L1289.22 304.011C1289.08 303.418 1288.79 302.871 1288.38 302.42C1287.98 301.969 1287.46 301.629 1286.88 301.431C1286.46 301.281 1286.01 301.214 1285.56 301.231C1285.04 301.246 1284.52 301.382 1284.06 301.627C1283.84 301.729 1283.64 301.855 1283.46 302.002L1265.24 316.257L1238.77 336.968L1229.91 343.906L1229.91 343.914L1229.9 343.915L1197.39 369.343L1192.02 373.557L1186.85 377.594C1186.56 377.821 1186.22 377.983 1185.87 378.07C1185.51 378.157 1185.13 378.167 1184.77 378.099L1178.34 376.874L1151.16 371.691L1123.95 366.506L1064.36 355.144C1063.85 355.043 1063.32 355.054 1062.82 355.177C1062.14 355.343 1061.53 355.7 1061.05 356.207C1060.86 356.406 1060.7 356.622 1060.56 356.854C1060.07 357.67 1059.92 358.647 1060.14 359.573V359.573ZM1148.71 372.284L1175.89 377.467L1184.58 379.124C1185.09 379.219 1185.61 379.205 1186.11 379.083C1186.61 378.961 1187.08 378.734 1187.49 378.417L1194.46 372.963L1192.02 373.557L1186.85 377.594C1186.56 377.821 1186.22 377.983 1185.87 378.07C1185.51 378.157 1185.13 378.167 1184.77 378.099L1178.34 376.874L1151.16 371.691L1148.71 372.284ZM1148.71 372.284L1175.89 377.467L1184.58 379.124C1185.09 379.219 1185.61 379.205 1186.11 379.083C1186.61 378.961 1187.08 378.734 1187.49 378.417L1194.46 372.963L1192.02 373.557L1186.85 377.594C1186.56 377.821 1186.22 377.983 1185.87 378.07C1185.51 378.157 1185.13 378.167 1184.77 378.099L1178.34 376.874L1151.16 371.691L1148.71 372.284ZM1148.71 372.284L1175.89 377.467L1184.58 379.124C1185.09 379.219 1185.61 379.205 1186.11 379.083C1186.61 378.961 1187.08 378.734 1187.49 378.417L1194.46 372.963L1192.02 373.557L1186.85 377.594C1186.56 377.821 1186.22 377.983 1185.87 378.07C1185.51 378.157 1185.13 378.167 1184.77 378.099L1178.34 376.874L1151.16 371.691L1148.71 372.284Z" fill="white" fill-opacity="0.5"/>
<path d="M1148.71 372.284L1175.89 377.467L1184.58 379.124C1185.09 379.219 1185.61 379.205 1186.11 379.083C1186.61 378.961 1187.08 378.734 1187.49 378.417L1194.46 372.963L1192.02 373.557L1186.85 377.594C1186.56 377.821 1186.22 377.983 1185.87 378.07C1185.51 378.157 1185.13 378.167 1184.77 378.099L1178.34 376.874L1151.16 371.691L1148.71 372.284ZM1229.91 343.914L1230.17 345.009L1231.38 344.07L1229.91 343.914ZM1148.71 372.284L1175.89 377.467L1184.58 379.124C1185.09 379.219 1185.61 379.205 1186.11 379.083C1186.61 378.961 1187.08 378.734 1187.49 378.417L1194.46 372.963L1192.02 373.557L1186.85 377.594C1186.56 377.821 1186.22 377.983 1185.87 378.07C1185.51 378.157 1185.13 378.167 1184.77 378.099L1178.34 376.874L1151.16 371.691L1148.71 372.284ZM1148.71 372.284L1175.89 377.467L1184.58 379.124C1185.09 379.219 1185.61 379.205 1186.11 379.083C1186.61 378.961 1187.08 378.734 1187.49 378.417L1194.46 372.963L1192.02 373.557L1186.85 377.594C1186.56 377.821 1186.22 377.983 1185.87 378.07C1185.51 378.157 1185.13 378.167 1184.77 378.099L1178.34 376.874L1151.16 371.691L1148.71 372.284ZM1061.57 356.932L1061.7 357.033C1061.73 356.996 1061.77 356.963 1061.8 356.924C1062.1 356.611 1062.47 356.377 1062.88 356.244C1063.3 356.111 1063.74 356.082 1064.16 356.161L1123.38 367.448L1148.71 372.284L1175.89 377.467L1184.58 379.124C1185.09 379.219 1185.61 379.205 1186.11 379.083C1186.61 378.961 1187.08 378.734 1187.49 378.417L1194.46 372.963L1192.02 373.557L1186.85 377.594C1186.56 377.821 1186.22 377.983 1185.87 378.07C1185.51 378.157 1185.13 378.167 1184.77 378.099L1178.34 376.874L1151.16 371.691L1123.95 366.506L1064.36 355.144C1063.85 355.043 1063.32 355.054 1062.82 355.177L1061.57 356.932ZM1060.14 359.573L1090.82 486.531C1091.05 487.469 1091.64 488.278 1092.46 488.781C1093.28 489.284 1094.27 489.439 1095.21 489.213L1317.22 435.364C1318.16 435.136 1318.97 434.545 1319.47 433.721C1319.97 432.897 1320.12 431.907 1319.9 430.968L1289.22 304.011C1289.08 303.418 1288.79 302.871 1288.38 302.42C1287.98 301.969 1287.46 301.629 1286.88 301.431C1286.46 301.281 1286.01 301.214 1285.56 301.231C1285.04 301.246 1284.52 301.382 1284.06 301.627C1283.84 301.729 1283.64 301.855 1283.46 302.002L1265.24 316.257L1238.77 336.968L1229.91 343.906L1229.91 343.914L1229.9 343.915L1197.39 369.343L1192.02 373.557L1186.85 377.594C1186.56 377.821 1186.22 377.983 1185.87 378.07C1185.51 378.157 1185.13 378.167 1184.77 378.099L1178.34 376.874L1151.16 371.691L1123.95 366.506L1064.36 355.144C1063.85 355.043 1063.32 355.054 1062.82 355.177C1062.14 355.343 1061.53 355.7 1061.05 356.207C1060.86 356.406 1060.7 356.622 1060.56 356.854C1060.07 357.67 1059.92 358.647 1060.14 359.573V359.573ZM1061.16 359.328C1061.07 358.953 1061.06 358.564 1061.14 358.187C1061.22 357.81 1061.38 357.456 1061.61 357.15C1061.63 357.105 1061.67 357.065 1061.7 357.033C1061.73 356.996 1061.77 356.963 1061.8 356.924C1062.1 356.611 1062.47 356.377 1062.88 356.244C1063.3 356.111 1063.74 356.082 1064.16 356.161L1123.38 367.448L1148.71 372.284L1175.89 377.467L1184.58 379.124C1185.09 379.219 1185.61 379.205 1186.11 379.083C1186.61 378.961 1187.08 378.734 1187.49 378.417L1194.46 372.963L1198.87 369.512L1230.17 345.009L1231.38 344.07L1238.77 338.286L1265.08 317.699L1284.1 302.816C1284.39 302.59 1284.72 302.428 1285.08 302.341C1285.18 302.317 1285.28 302.3 1285.38 302.292C1285.47 302.276 1285.56 302.267 1285.65 302.266C1285.96 302.263 1286.26 302.312 1286.55 302.412C1286.96 302.555 1287.32 302.798 1287.62 303.12C1287.91 303.442 1288.12 303.832 1288.22 304.254L1318.89 431.212C1318.98 431.545 1318.99 431.89 1318.94 432.228C1318.88 432.567 1318.77 432.891 1318.59 433.183C1318.41 433.476 1318.18 433.73 1317.9 433.931C1317.62 434.133 1317.31 434.278 1316.98 434.358L1094.96 488.207C1094.29 488.369 1093.59 488.257 1093 487.896C1092.41 487.536 1091.99 486.956 1091.83 486.285L1061.16 359.328ZM1148.71 372.284L1175.89 377.467L1184.58 379.124C1185.09 379.219 1185.61 379.205 1186.11 379.083C1186.61 378.961 1187.08 378.734 1187.49 378.417L1194.46 372.963L1192.02 373.557L1186.85 377.594C1186.56 377.821 1186.22 377.983 1185.87 378.07C1185.51 378.157 1185.13 378.167 1184.77 378.099L1178.34 376.874L1151.16 371.691L1148.71 372.284ZM1148.71 372.284L1175.89 377.467L1184.58 379.124C1185.09 379.219 1185.61 379.205 1186.11 379.083C1186.61 378.961 1187.08 378.734 1187.49 378.417L1194.46 372.963L1192.02 373.557L1186.85 377.594C1186.56 377.821 1186.22 377.983 1185.87 378.07C1185.51 378.157 1185.13 378.167 1184.77 378.099L1178.34 376.874L1151.16 371.691L1148.71 372.284ZM1148.71 372.284L1175.89 377.467L1184.58 379.124C1185.09 379.219 1185.61 379.205 1186.11 379.083C1186.61 378.961 1187.08 378.734 1187.49 378.417L1194.46 372.963L1192.02 373.557L1186.85 377.594C1186.56 377.821 1186.22 377.983 1185.87 378.07C1185.51 378.157 1185.13 378.167 1184.77 378.099L1178.34 376.874L1151.16 371.691L1148.71 372.284Z" fill="#161D33" fill-opacity="0.29"/>
<path d="M1259.36 410.422C1258.86 408.342 1259.2 406.148 1260.31 404.321C1261.43 402.494 1263.22 401.184 1265.29 400.679L1293.31 393.882C1295.39 393.387 1297.57 393.735 1299.39 394.851C1301.21 395.967 1302.51 397.759 1303.01 399.834C1303.51 401.91 1303.17 404.1 1302.06 405.925C1300.96 407.75 1299.17 409.061 1297.1 409.571L1269.08 416.368C1267.01 416.869 1264.82 416.524 1262.99 415.41C1261.17 414.295 1259.86 412.501 1259.36 410.422Z" fill="#9100FF" fill-opacity="0.13"/>
<path d="M949.69 386.845C953.526 386.845 956.636 383.73 956.636 379.886C956.636 376.043 953.526 372.928 949.69 372.928C945.855 372.928 942.745 376.043 942.745 379.886C942.745 383.73 945.855 386.845 949.69 386.845Z" fill="white" fill-opacity="0.5"/>
</svg>
