<svg width="798" height="956" viewBox="0 0 798 956" fill="none" xmlns="http://www.w3.org/2000/svg">
<g clip-path="url(#clip0_572_514)">
<path d="M266.115 376.639C273.443 376.639 279.383 370.591 279.383 363.131C279.383 355.671 273.443 349.623 266.115 349.623C258.788 349.623 252.848 355.671 252.848 363.131C252.848 370.591 258.788 376.639 266.115 376.639Z" fill="#E6E6E6"/>
<path d="M324.678 360.929C324.147 359.997 323.192 359.43 322.131 359.43C321.069 359.43 320.114 359.997 319.583 360.929L313.878 373.937C311.616 358.788 303.212 345.667 292.677 333.251C291.894 331.887 290.514 331.076 288.962 331.076C287.41 331.076 286.03 331.887 285.247 333.251C280.264 355.961 266.607 377.872 248.579 399.381C247.009 403.367 249.892 407.707 254.11 407.707H339.339C344.727 407.707 348.545 402.353 346.876 397.137C343.73 382.463 337.157 369.888 324.678 360.929V360.929Z" fill="#9100FF"/>
<path d="M298.754 298.293C257.054 298.293 223.129 332.833 223.129 375.288C223.129 392.497 228.701 408.41 238.121 421.242C251.919 440.072 273.957 452.283 298.754 452.283C324.24 452.283 346.822 439.383 360.527 419.662C369.244 407.113 374.378 391.795 374.378 375.288C374.378 332.833 340.453 298.293 298.754 298.293V298.293ZM359.054 417.068C345.906 436.682 323.776 449.582 298.754 449.582C274.408 449.582 252.822 437.384 239.567 418.689C230.89 406.478 225.782 391.471 225.782 375.288C225.782 334.318 258.513 300.994 298.754 300.994C338.981 300.994 371.725 334.318 371.725 375.288C371.725 390.768 367.055 405.154 359.054 417.068V417.068Z" fill="#E6E6E6"/>
<path d="M369.324 236.454H96.6282C93.8406 236.451 91.5815 234.151 91.5786 231.313V162.444C91.5823 159.606 93.8409 157.306 96.6282 157.303H369.324C372.111 157.306 374.37 159.606 374.374 162.444V231.314C374.37 234.152 372.111 236.451 369.324 236.455V236.454V236.454ZM96.6282 159.359C94.9552 159.36 93.5994 160.74 93.5979 162.444V231.314C93.5994 233.017 94.9552 234.398 96.6282 234.399H369.324C370.997 234.398 372.353 233.017 372.354 231.314V162.444C372.353 160.74 370.997 159.36 369.324 159.359H96.6282V159.359Z" fill="#E6E6E6"/>
<path d="M180.961 182.481C179.009 182.481 177.426 184.093 177.426 186.08C177.426 188.068 179.009 189.68 180.961 189.68H347.607C349.559 189.756 351.201 188.207 351.276 186.22C351.351 184.234 349.83 182.561 347.878 182.485C347.826 182.483 347.775 182.482 347.723 182.483H180.961V182.481H180.961V182.481Z" fill="#E6E6E6"/>
<path d="M180.961 204.075C179.009 204.075 177.426 205.686 177.426 207.674C177.426 209.662 179.009 211.273 180.961 211.273H347.607C349.559 211.349 351.201 209.801 351.276 207.814C351.351 205.827 349.83 204.155 347.878 204.079C347.826 204.077 347.775 204.076 347.723 204.076H180.961V204.075H180.961V204.075Z" fill="#E6E6E6"/>
<path d="M131.977 218.471C143.691 218.471 153.187 208.803 153.187 196.877C153.187 184.951 143.691 175.283 131.977 175.283C120.264 175.283 110.768 184.951 110.768 196.877C110.768 208.803 120.264 218.471 131.977 218.471Z" fill="#E6E6E6"/>
<path d="M4.96816 248.579C2.77967 248.579 1 250.391 1 252.619V284.94C1 287.168 2.77966 288.98 4.96816 288.98C7.15665 288.98 8.93631 287.168 8.93631 284.94V252.619C8.93631 250.391 7.15665 248.579 4.96816 248.579Z" fill="#3F3D56"/>
<path d="M4.96816 345.541C2.77967 345.541 1 347.353 1 349.581V412.202C1 414.43 2.77966 416.242 4.96816 416.242C7.15665 416.242 8.93631 414.43 8.93631 412.202V349.581C8.93631 347.353 7.15665 345.541 4.96816 345.541V345.541Z" fill="#3F3D56"/>
<path d="M4.96816 434.423C2.77967 434.423 1 436.235 1 438.463V501.084C1 503.312 2.77966 505.124 4.96816 505.124C7.15665 505.124 8.93631 503.312 8.93631 501.084V438.463C8.93631 436.235 7.15665 434.423 4.96816 434.423Z" fill="#3F3D56"/>
<path d="M447.841 250.974V254.186H451.053C452.151 254.186 452.754 254.991 452.754 255.638L452.75 337.381C452.75 338.027 452.148 338.833 451.049 338.833H447.837V342.045V824.928C447.837 863.894 414.515 895.764 373.054 895.764H87.5409C46.0799 895.764 12.7574 863.894 12.7574 824.928V123.031C12.758 84.0643 46.0811 52.1951 87.5421 52.1957H373.057C414.518 52.1957 447.841 84.0655 447.841 123.032V250.974Z" stroke="white" stroke-width="6.42391"/>
<path d="M369.324 641.094H96.6282C93.8406 641.091 91.5815 638.79 91.5786 635.952V567.084C91.5823 564.246 93.8409 561.946 96.6282 561.942H369.324C372.111 561.946 374.37 564.246 374.374 567.084V635.954C374.369 638.791 372.111 641.09 369.324 641.094V641.094ZM96.6282 563.998C94.9552 564 93.5994 565.38 93.5979 567.084V635.954C93.5994 637.657 94.9552 639.038 96.6282 639.039H369.324C370.997 639.038 372.353 637.657 372.354 635.954V567.084C372.353 565.38 370.997 564 369.324 563.998H96.6282V563.998Z" fill="#E6E6E6"/>
<path d="M369.324 773.821H96.6282C93.8406 773.818 91.5815 771.518 91.5786 768.68V699.811C91.5823 696.973 93.8409 694.674 96.6282 694.67H369.324C372.111 694.674 374.37 696.973 374.374 699.811V768.681C374.37 771.519 372.111 773.819 369.324 773.822V773.821ZM96.6282 696.726C94.9552 696.727 93.5994 698.108 93.5979 699.811V768.681C93.5994 770.385 94.9552 771.765 96.6282 771.767H369.324C370.997 771.765 372.353 770.385 372.354 768.681V699.811C372.353 698.108 370.997 696.727 369.324 696.726H96.6282V696.726Z" fill="#E6E6E6"/>
<path d="M111.082 357.175C111.388 356.828 111.695 356.5 112.01 356.164C119.705 347.924 123.751 343.039 133.143 343.039C134.886 343.039 142.568 343.12 144.16 343.281C150.755 343.939 156.029 345.963 159.983 349.351C165.821 354.355 168.747 362.298 168.762 373.181C168.762 373.783 168.796 374.906 168.851 376.396C169.199 385.079 175.049 394.3 176.185 397.433C178.029 402.534 175.049 418.871 172.661 422.204C171.274 424.15 170.994 419.271 166.728 420.185C165.945 420.358 162.67 426.805 161.785 426.929C157.211 427.546 152.6 427.824 147.986 427.761C147.381 427.761 146.775 427.761 146.142 427.747H146.136C143.951 427.734 141.617 427.67 139.14 427.575C132.562 427.438 126.011 426.693 119.566 425.35H119.56C118.709 425.155 117.872 424.934 117.055 424.699L116.905 424.657L116.837 424.522C115.671 422.106 115.006 419.471 114.884 416.782C113.637 418.495 112.718 420.432 112.175 422.491L112.073 422.887L110.008 416.077C107.131 414.817 106.333 419.436 104.477 416.867C102.702 414.188 101.638 411.087 101.387 407.865C100.457 399.116 103.99 365.226 111.082 357.175L111.082 357.175Z" fill="#2F2E41"/>
<path d="M108.788 638.563H149.574L156.414 604.133L158.632 638.563H199.174C199.194 613.045 188.861 550.178 190.097 549.65C191.334 549.121 189.467 547.446 189.467 547.446L182.855 524.329L182.235 522.153H135.024C132.307 524.751 129.801 527.569 127.53 530.579C126.761 531.577 125.958 532.658 125.134 533.821C124.562 534.645 123.971 535.512 123.379 536.42C118.118 544.393 114.186 553.196 111.741 562.473V562.479C111.326 564.066 110.959 565.69 110.638 567.35V567.357C110.353 568.834 110.101 570.329 109.903 571.861C109.753 572.976 109.625 574.106 109.529 575.248C108.962 581.582 109.16 587.963 110.121 594.247L108.788 638.563V638.563Z" fill="#2F2E41"/>
<path d="M143.706 404.339C156.856 404.339 167.516 393.485 167.516 380.097C167.516 366.709 156.856 355.856 143.706 355.856C130.557 355.856 119.896 366.709 119.896 380.097C119.896 393.485 130.557 404.339 143.706 404.339Z" fill="#FFB6B6"/>
<path d="M128.062 349.969H151.371C154.191 349.3 157.097 349.092 159.981 349.351C163.525 349.626 166.91 350.959 169.714 353.183C173.885 356.593 176.186 362.026 176.186 368.483C176.174 370.547 176.591 373.264 176.186 375.287L173.352 370.531L172.603 375.287C170.452 375.848 171.009 375.959 168.849 376.395C168.331 376.499 167.807 376.603 167.283 376.701C164.452 377.234 161.752 378.255 161.752 378.255L158.537 377.879C156.529 375.998 156.192 371.354 155.118 368.799C154.908 369.544 154.65 370.858 154.398 372.28C153.749 375.942 150.609 378.624 146.955 378.626L146.892 378.626C137.95 378.619 137.953 371.571 129.27 369.391C128.698 369.256 134.537 410.462 133.973 410.309L116.089 398.604L118.398 359.808C118.404 354.376 122.727 349.975 128.062 349.969L128.062 349.969H128.062H128.062Z" fill="#2F2E41"/>
<path d="M103.625 347.819C99.3327 356.753 102.455 358.761 111.23 363.131C120.005 367.501 131.111 372.579 135.404 363.645C139.696 354.71 132.178 347.41 123.403 343.04C125.276 335.635 112.728 332.242 106.637 343.385C108.73 345.166 103.912 350.004 104.948 352.573C102.809 350.815 106.516 347.449 103.788 347.79C103.734 347.799 103.683 347.808 103.625 347.819L103.625 347.819V347.819Z" fill="#2F2E41"/>
<path d="M369.324 773.821H96.6282C93.8406 773.818 91.5815 771.518 91.5786 768.68V699.811C91.5823 696.973 93.8409 694.674 96.6282 694.67H369.324C372.111 694.674 374.37 696.973 374.374 699.811V768.681C374.37 771.519 372.111 773.819 369.324 773.822V773.821ZM96.6282 696.726C94.9552 696.727 93.5994 698.108 93.5979 699.811V768.681C93.5994 770.385 94.9552 771.765 96.6282 771.767H369.324C370.997 771.765 372.353 770.385 372.354 768.681V699.811C372.353 698.108 370.997 696.727 369.324 696.726H96.6282V696.726Z" fill="#E6E6E6"/>
<path d="M149.585 719.848C147.633 719.848 146.05 721.46 146.05 723.448C146.05 725.435 147.633 727.047 149.585 727.047H316.231C318.183 727.123 319.825 725.574 319.9 723.587C319.975 721.601 318.454 719.928 316.502 719.852C316.451 719.85 316.399 719.849 316.347 719.85H149.585V719.848V719.848Z" fill="#E6E6E6"/>
<path d="M149.585 741.442C147.633 741.442 146.05 743.054 146.05 745.041C146.05 747.029 147.633 748.64 149.585 748.64H316.231C318.183 748.717 319.825 747.168 319.9 745.181C319.975 743.194 318.454 741.522 316.502 741.446C316.451 741.444 316.399 741.443 316.347 741.443H149.585V741.442V741.442Z" fill="#E6E6E6"/>
<path d="M222.873 401.071C226.336 395.826 231.801 393.393 235.08 395.637C238.358 397.881 238.208 403.952 234.745 409.197C233.229 411.493 231.329 413.25 229.397 414.311L214.447 436.349L204.439 428.986L220.239 408.043C220.476 405.821 221.357 403.367 222.873 401.071L222.873 401.071V401.071Z" fill="#FFB6B6"/>
<path d="M219.825 430.51L178.908 478.355L175.14 482.758L157.613 476.302L130.574 466.319H130.561L110.341 458.863C110.554 457.039 110.845 455.229 111.23 453.433C111.641 451.461 112.146 449.502 112.756 447.57C114.587 441.735 117.28 436.183 120.756 431.131C122.056 431.671 123.357 432.32 124.67 433.063L154.814 446.355L171.584 453.743L178.443 446.935L207.99 417.596L210.75 420.608L210.763 420.622L219.002 429.618L219.015 429.632L219.825 430.51H219.825Z" fill="#9100FF"/>
<path d="M189.004 532.806L120.491 529.793C121.512 527.646 119.96 525.417 120.478 523.539C120.942 521.905 123.542 520.594 123.622 519.068C124.1 510.801 122.866 497.347 113.552 482.907C111.628 479.908 110.686 475.991 110.248 471.628C109.811 467.333 109.85 463.064 110.341 458.863C110.554 457.04 110.845 455.229 111.23 453.433C111.641 451.461 112.146 449.502 112.756 447.57C114.587 441.735 117.28 436.183 120.756 431.131C120.982 430.78 121.221 430.442 121.459 430.105C122.746 428.295 124.126 426.552 125.612 424.877C127.324 422.946 129.168 421.108 131.118 419.379L134.077 416.772L161.594 412.963L175.989 441.992L178.443 446.936L181.097 452.285C179.571 459.565 178.894 466.036 178.788 471.939C178.748 474.154 178.788 476.288 178.908 478.355C179.08 481.583 179.398 484.65 179.85 487.594C180.938 494.821 182.676 501.386 184.307 508.032C185.17 511.504 185.992 514.989 186.669 518.609C186.988 520.311 190.344 523.661 190.822 525.201C191.472 527.267 188.022 531.063 189.004 532.805V532.806Z" fill="#9100FF"/>
<path d="M240.738 474.582C246.472 472.159 252.347 473.207 253.861 476.922C255.375 480.637 251.955 485.612 246.221 488.034C243.711 489.094 241.174 489.49 238.988 489.288L214.566 499.241L210.223 487.474L234.758 478.91C236.162 477.192 238.229 475.642 240.738 474.582L240.738 474.582V474.582Z" fill="#FFB6B6"/>
<path d="M112.757 447.571C112.146 449.503 111.642 451.461 111.231 453.433L156.606 515.8L184.308 508.033L222.227 497.402L222.028 496.2L220.038 484.042L219.374 479.977L179.85 487.595L169.409 489.608L151.75 461.957H151.737L141.534 445.977C136.705 436.454 129.368 430.97 121.46 430.105L112.757 447.571H112.757V447.571Z" fill="#9100FF"/>
<path d="M369.324 647.198C373.75 647.198 377.338 643.546 377.338 639.039C377.338 634.533 373.75 630.88 369.324 630.88C364.898 630.88 361.31 634.533 361.31 639.039C361.31 643.546 364.898 647.198 369.324 647.198Z" fill="#E6E6E6"/>
<path d="M632.391 571.728L631.695 626.893L618.214 676.069L607.437 671.976L612.222 626.901L611.593 565.903L632.391 571.728Z" fill="#FFB6B6"/>
<path d="M618.167 683.999C619.431 676.928 617.113 670.575 612.989 669.811C608.866 669.047 604.498 674.159 603.233 681.23C601.968 688.302 604.286 694.654 608.41 695.418C612.534 696.183 616.902 691.07 618.167 683.999Z" fill="#FFB6B6"/>
<path d="M616.032 506.043C616.032 506.043 639.127 506.367 639.107 518.858C639.096 525.91 637.609 589.941 633.469 628.839C630.276 658.835 624.182 666.661 624.182 666.661L609.587 632.891L616.032 506.043V506.043Z" fill="#E6E6E6"/>
<path d="M615.438 618.75H537.441C543.979 603.897 547.998 589.752 541.715 578.501L615.438 574.149C611.754 589.338 611.303 604.244 615.438 618.75Z" fill="#FFB6B6"/>
<path d="M605.822 487.125L574.837 484.95L562.016 501.267L555.516 502.47C545.773 504.274 538.835 513.126 539.27 523.199L541.798 581.706L615.858 587.204L633.602 511.016L612.233 502.355L605.822 487.125Z" fill="#E6E6E6"/>
<path d="M416.864 504.774C419.062 506.787 420.631 509.139 421.46 511.421L443.592 529.255L434.949 539.729L413.429 520.51C411.113 519.911 408.651 518.57 406.452 516.557C401.43 511.957 399.69 505.591 402.565 502.337C405.44 499.083 411.842 500.174 416.864 504.774Z" fill="#FFB6B6"/>
<path d="M573.336 519.788V519.788L488.535 578.088L427.748 535.019L436.874 518.188L484.717 546.496L528.838 512.005C544.549 496.979 564.24 499.892 573.336 519.788H573.336Z" fill="#E6E6E6"/>
<path d="M588.492 480.063C601.187 480.063 611.479 469.585 611.479 456.659C611.479 443.734 601.187 433.256 588.492 433.256C575.796 433.256 565.504 443.734 565.504 456.659C565.504 469.585 575.796 480.063 588.492 480.063Z" fill="#FFB6B6"/>
<path d="M619.736 450.91V455.448L593.811 448.019L574.375 452.166C574.149 449.154 573.273 446.195 571.814 443.575C572.829 447.778 572.943 451.03 571.867 452.706L569.253 453.26C568.829 452.085 568.006 451.058 566.931 450.437C566.825 450.369 566.693 450.315 566.573 450.356C566.388 450.423 566.374 450.667 566.374 450.856C566.401 451.855 566.427 452.855 566.467 453.854L558.958 455.448V450.91C551.753 434.406 570.742 420.125 589.354 419.977C597.752 419.91 605.341 423.435 610.847 429.027C616.34 434.633 619.736 442.359 619.736 450.91V450.91Z" fill="#2F2E41"/>
<path d="M634.321 504.129L632.363 503.964C632.503 503.312 632.642 502.668 632.769 502.017C633.854 496.546 631.466 489.583 631.29 484.327C630.369 489.88 631.945 496.712 630.315 501.984C630.133 502.569 623.049 506.35 622.855 506.927C615.014 504.008 606.85 494.681 597.605 500.129C592.137 503.351 585.898 501.938 579.69 500.463C578.153 500.098 577.939 492.372 576.419 492.068C573.695 491.525 569.695 498.548 567.131 498.822L577.745 456.948C577.745 434.168 575.673 410.268 604.015 418.323C611.143 420.349 618.198 421.937 623.459 427.927C628.721 433.925 632.466 442.307 633.794 451.853C634.594 457.612 639.588 477.166 634.321 504.129V504.129Z" fill="#2F2E41"/>
<path d="M616.018 925.221L603.366 925.524L596.313 867.651L614.985 867.201L616.018 925.221Z" fill="#FFB7B7"/>
<path d="M572.609 952.096C572.609 954.272 574.126 956.036 575.997 956.036H601.111C601.111 956.036 603.583 945.922 613.659 941.569L614.355 956.036H627.31L625.741 932.773C625.741 932.773 629.206 920.327 622.009 913.965C614.811 907.603 620.641 908.489 620.641 908.489L617.81 894.091L598.232 896.434L598.088 919.036L588.588 941.471L574.652 948.479C573.412 949.103 572.609 950.524 572.609 952.096H572.609H572.609Z" fill="#2F2E41"/>
<path d="M577.524 915.789L565.362 919.352L544.115 865.195L562.064 859.936L577.524 915.789Z" fill="#FFB7B7"/>
<path d="M542.234 953C542.777 955.105 544.684 956.42 546.494 955.936L570.786 949.448C570.786 949.448 570.655 939.026 579.317 932.212L583.596 946.026L596.127 942.679L588.811 920.583C588.811 920.583 589.061 907.649 580.514 903.355C571.966 899.061 577.826 898.411 577.826 898.411L571.498 885.216L553.146 892.541L558.64 914.44L555.042 938.595L543.309 948.974C542.265 949.898 541.843 951.48 542.234 953L542.234 953L542.234 953Z" fill="#2F2E41"/>
<path d="M608.26 615.331L616.22 618.033C628.667 641.436 633.943 672.515 633.244 709.992L619.104 878.317H595.97L579.04 690.797L549.189 761.18L571.03 878.317L549.189 880.584L505.197 758.78L535.834 617.215L608.26 615.331V615.331Z" fill="#2F2E41"/>
</g>
<defs>
<clipPath id="clip0_572_514">
<rect width="796.327" height="955.592" fill="white" transform="translate(0.836426 0.407715)"/>
</clipPath>
</defs>
</svg>
