<svg width="460" height="438" viewBox="0 0 460 438" fill="none" xmlns="http://www.w3.org/2000/svg">
<path d="M261.677 106.707V108.207H263.177C263.731 108.207 263.971 108.594 263.971 108.825L263.97 145.946C263.97 146.176 263.729 146.564 263.175 146.564H261.675V148.064V367.352C261.675 384.984 246.154 399.479 226.751 399.479H93.415C74.0117 399.479 58.4907 384.984 58.4907 367.352V48.6052C58.491 30.9725 74.0123 16.4783 93.4156 16.4786H226.753C246.156 16.4786 261.677 30.973 261.677 48.6057V106.707Z" stroke="white" stroke-width="3"/>
<path d="M225.009 283.869H97.659C96.3571 283.867 95.3021 282.823 95.3008 281.534V250.259C95.3025 248.97 96.3573 247.926 97.659 247.924H225.009C226.311 247.926 227.366 248.97 227.367 250.259V281.534C227.365 282.823 226.311 283.867 225.009 283.869V283.869ZM97.659 248.858C96.8777 248.859 96.2445 249.486 96.2438 250.259V281.534C96.2445 282.308 96.8777 282.935 97.659 282.936H225.009C225.791 282.935 226.424 282.308 226.424 281.534V250.259C226.424 249.486 225.791 248.859 225.009 248.858H97.659V248.858Z" fill="#E6E6E6"/>
<path d="M225.009 344.143H97.659C96.3571 344.142 95.3021 343.097 95.3008 341.808V310.533C95.3025 309.245 96.3573 308.2 97.659 308.199H225.009C226.311 308.2 227.366 309.245 227.367 310.533V341.809C227.366 343.098 226.311 344.142 225.009 344.144V344.143ZM97.659 309.132C96.8777 309.133 96.2445 309.76 96.2438 310.533V341.809C96.2445 342.582 96.8777 343.209 97.659 343.21H225.009C225.791 343.209 226.424 342.582 226.424 341.809V310.533C226.424 309.76 225.791 309.133 225.009 309.132H97.659V309.132Z" fill="#E6E6E6"/>
<path d="M104.409 154.935C104.552 154.777 104.695 154.628 104.842 154.476C108.436 150.734 110.325 148.516 114.712 148.516C115.525 148.516 119.113 148.552 119.857 148.625C122.936 148.924 125.399 149.843 127.246 151.382C129.972 153.654 131.339 157.261 131.346 162.204C131.346 162.477 131.362 162.987 131.387 163.664C131.55 167.607 134.282 171.794 134.812 173.217C135.674 175.533 134.282 182.953 133.167 184.466C132.519 185.35 132.388 183.134 130.396 183.549C130.03 183.628 128.501 186.555 128.087 186.612C125.951 186.892 123.798 187.018 121.643 186.99C121.361 186.99 121.078 186.99 120.782 186.983H120.779C119.759 186.977 118.669 186.949 117.512 186.905C114.44 186.843 111.381 186.505 108.371 185.895H108.368C107.971 185.806 107.58 185.706 107.198 185.599L107.128 185.58L107.097 185.519C106.552 184.421 106.242 183.225 106.185 182.004C105.602 182.782 105.173 183.661 104.919 184.597L104.872 184.776L103.908 181.684C102.564 181.112 102.191 183.209 101.324 182.042C100.495 180.826 99.9984 179.417 99.8814 177.954C99.447 173.981 101.097 158.591 104.409 154.935L104.409 154.935Z" fill="#2F2E41"/>
<path d="M103.337 282.719H122.385L125.579 267.084L126.615 282.719H145.548C145.557 271.131 140.732 242.582 141.309 242.342C141.887 242.102 141.015 241.341 141.015 241.341L137.927 230.843L137.638 229.855H115.59C114.321 231.035 113.151 232.315 112.09 233.682C111.731 234.135 111.356 234.626 110.971 235.154C110.704 235.528 110.428 235.922 110.152 236.334C107.695 239.955 105.859 243.952 104.717 248.165V248.168C104.523 248.889 104.351 249.626 104.202 250.38V250.383C104.068 251.054 103.951 251.733 103.858 252.428C103.788 252.935 103.728 253.448 103.684 253.967C103.419 256.843 103.512 259.741 103.96 262.595L103.337 282.719V282.719Z" fill="#2F2E41"/>
<path d="M119.645 176.353C125.786 176.353 130.764 171.424 130.764 165.344C130.764 159.265 125.786 154.336 119.645 154.336C113.504 154.336 108.525 159.265 108.525 165.344C108.525 171.424 113.504 176.353 119.645 176.353Z" fill="#FFB6B6"/>
<path d="M112.339 151.662H123.224C124.541 151.359 125.898 151.264 127.245 151.382C128.9 151.507 130.481 152.112 131.79 153.122C133.738 154.671 134.813 157.138 134.813 160.07C134.807 161.008 135.002 162.241 134.813 163.16L133.489 161L133.139 163.16C132.135 163.415 132.395 163.465 131.386 163.663C131.145 163.711 130.9 163.758 130.655 163.802C129.333 164.044 128.072 164.508 128.072 164.508L126.571 164.337C125.633 163.483 125.475 161.374 124.974 160.214C124.876 160.552 124.755 161.149 124.637 161.794C124.334 163.457 122.868 164.675 121.162 164.676L121.133 164.676C116.956 164.673 116.958 161.473 112.903 160.483C112.636 160.421 115.362 179.134 115.099 179.064L106.747 173.749L107.825 156.131C107.828 153.664 109.847 151.665 112.339 151.662L112.339 151.662H112.339H112.339Z" fill="#2F2E41"/>
<path d="M100.927 150.686C98.922 154.743 100.38 155.655 104.478 157.64C108.576 159.624 113.763 161.93 115.767 157.873C117.772 153.816 114.261 150.5 110.163 148.516C111.038 145.153 105.178 143.612 102.333 148.673C103.311 149.481 101.06 151.679 101.544 152.845C100.546 152.047 102.277 150.518 101.003 150.673C100.978 150.677 100.954 150.681 100.927 150.686L100.927 150.686V150.686Z" fill="#2F2E41"/>
<path d="M225.009 344.143H97.659C96.3571 344.142 95.3021 343.097 95.3008 341.808V310.533C95.3025 309.245 96.3573 308.2 97.659 308.199H225.009C226.311 308.2 227.366 309.245 227.367 310.533V341.809C227.366 343.098 226.311 344.142 225.009 344.144V344.143ZM97.659 309.132C96.8777 309.133 96.2445 309.76 96.2438 310.533V341.809C96.2445 342.582 96.8777 343.209 97.659 343.21H225.009C225.791 343.209 226.424 342.582 226.424 341.809V310.533C226.424 309.76 225.791 309.133 225.009 309.132H97.659V309.132Z" fill="#E6E6E6"/>
<path d="M122.39 319.633C121.478 319.633 120.739 320.365 120.739 321.267C120.739 322.17 121.478 322.902 122.39 322.902H200.215C201.126 322.936 201.893 322.233 201.928 321.331C201.963 320.429 201.252 319.669 200.341 319.635C200.317 319.634 200.293 319.633 200.269 319.633H122.39V319.633V319.633Z" fill="#E6E6E6"/>
<path d="M122.39 329.439C121.478 329.439 120.739 330.171 120.739 331.073C120.739 331.976 121.478 332.708 122.39 332.708H200.215C201.126 332.742 201.893 332.039 201.928 331.137C201.963 330.235 201.252 329.475 200.341 329.441C200.317 329.44 200.293 329.439 200.269 329.44H122.39V329.439V329.439Z" fill="#E6E6E6"/>
<path d="M225.009 100.113H97.659C96.3571 100.111 95.3021 99.067 95.3008 97.7781V66.5033C95.3025 65.2146 96.3573 64.1703 97.659 64.1686H225.009C226.311 64.1703 227.366 65.2146 227.367 66.5033V97.7787C227.366 99.0675 226.311 100.112 225.009 100.113V100.113V100.113ZM97.659 65.1022C96.8777 65.1029 96.2445 65.7298 96.2438 66.5033V97.7788C96.2445 98.5523 96.8777 99.1791 97.659 99.1798H225.009C225.791 99.1791 226.424 98.5523 226.424 97.7788V66.5033C226.424 65.7298 225.791 65.1029 225.009 65.1022H97.659V65.1022Z" fill="#E6E6E6"/>
<path d="M137.043 75.6028C136.131 75.6028 135.392 76.3346 135.392 77.2372C135.392 78.1399 136.131 78.8717 137.043 78.8717H214.868C215.779 78.9063 216.546 78.2029 216.581 77.3007C216.616 76.3985 215.905 75.6391 214.994 75.6045C214.97 75.6036 214.946 75.6032 214.921 75.6034H137.043V75.6028H137.043V75.6028Z" fill="#E6E6E6"/>
<path d="M137.043 85.4089C136.131 85.4089 135.392 86.1407 135.392 87.0434C135.392 87.9461 136.131 88.6779 137.043 88.6779H214.868C215.779 88.7124 216.546 88.0091 216.581 87.1069C216.616 86.2047 215.905 85.4453 214.994 85.4107C214.97 85.4098 214.946 85.4094 214.921 85.4095H137.043V85.4089H137.043V85.4089Z" fill="#E6E6E6"/>
<path d="M114.167 91.9463C119.637 91.9463 124.072 87.5559 124.072 82.1401C124.072 76.7243 119.637 72.3339 114.167 72.3339C108.697 72.3339 104.262 76.7243 104.262 82.1401C104.262 87.5559 108.697 91.9463 114.167 91.9463Z" fill="#E6E6E6"/>
<path d="M54.8531 105.619C53.8311 105.619 53 106.442 53 107.454V122.131C53 123.143 53.8311 123.966 54.8531 123.966C55.8752 123.966 56.7063 123.143 56.7063 122.131V107.454C56.7063 106.442 55.8752 105.619 54.8531 105.619Z" fill="#3F3D56"/>
<path d="M54.8531 149.652C53.8311 149.652 53 150.474 53 151.486V179.924C53 180.936 53.8311 181.759 54.8531 181.759C55.8752 181.759 56.7063 180.936 56.7063 179.924V151.486C56.7063 150.474 55.8752 149.652 54.8531 149.652V149.652Z" fill="#3F3D56"/>
<path d="M54.8531 190.015C53.8311 190.015 53 190.837 53 191.849V220.287C53 221.299 53.8311 222.122 54.8531 222.122C55.8752 222.122 56.7063 221.299 56.7063 220.287V191.849C56.7063 190.837 55.8752 190.015 54.8531 190.015Z" fill="#3F3D56"/>
<path d="M176.81 163.774C180.232 163.774 183.006 161.027 183.006 157.64C183.006 154.252 180.232 151.505 176.81 151.505C173.388 151.505 170.614 154.252 170.614 157.64C170.614 161.027 173.388 163.774 176.81 163.774Z" fill="#E6E6E6"/>
<path d="M204.159 156.64C203.911 156.216 203.465 155.959 202.97 155.959C202.474 155.959 202.028 156.216 201.78 156.64L199.116 162.547C198.059 155.667 194.135 149.709 189.215 144.071C188.849 143.451 188.205 143.083 187.48 143.083C186.755 143.083 186.11 143.451 185.745 144.071C183.418 154.384 177.04 164.334 168.621 174.101C167.887 175.912 169.234 177.883 171.204 177.883H211.006C213.522 177.883 215.305 175.451 214.526 173.083C213.057 166.419 209.987 160.708 204.159 156.64V156.64Z" fill="#9100FF"/>
<path d="M192.052 128.195C172.578 128.195 156.735 143.881 156.735 163.161C156.735 170.976 159.338 178.202 163.737 184.029C170.181 192.58 180.472 198.126 192.052 198.126C203.955 198.126 214.5 192.268 220.901 183.312C224.972 177.613 227.369 170.657 227.369 163.161C227.369 143.881 211.526 128.195 192.052 128.195V128.195ZM220.213 182.134C214.073 191.041 203.738 196.899 192.052 196.899C180.683 196.899 170.602 191.36 164.412 182.87C160.36 177.324 157.975 170.509 157.975 163.161C157.975 144.555 173.26 129.422 192.052 129.422C210.839 129.422 226.13 144.555 226.13 163.161C226.13 170.19 223.949 176.723 220.213 182.134V182.134Z" fill="#E6E6E6"/>
<path d="M156.616 174.869C158.233 172.487 160.786 171.382 162.317 172.401C163.848 173.42 163.777 176.177 162.16 178.559C161.452 179.602 160.565 180.4 159.663 180.882L152.681 190.889L148.007 187.546L155.386 178.035C155.496 177.026 155.908 175.912 156.616 174.869L156.616 174.869V174.869Z" fill="#FFB6B6"/>
<path d="M155.192 188.238L136.084 209.965L134.324 211.965L126.139 209.033L113.512 204.5H113.506L104.063 201.114C104.162 200.286 104.298 199.464 104.478 198.648C104.67 197.752 104.906 196.863 105.191 195.985C106.046 193.335 107.303 190.814 108.927 188.52C109.534 188.765 110.141 189.06 110.755 189.397L124.832 195.433L132.664 198.789L135.867 195.697L149.665 182.374L150.954 183.741L150.96 183.748L154.808 187.833L154.814 187.839L155.192 188.238H155.192Z" fill="#9100FF"/>
<path d="M140.799 234.693L108.803 233.325C109.28 232.349 108.555 231.337 108.797 230.484C109.014 229.742 110.228 229.147 110.265 228.454C110.488 224.7 109.912 218.59 105.562 212.033C104.664 210.671 104.224 208.892 104.02 206.911C103.815 204.96 103.834 203.021 104.063 201.114C104.162 200.286 104.299 199.464 104.478 198.648C104.67 197.752 104.906 196.863 105.191 195.985C106.046 193.335 107.304 190.814 108.927 188.52C109.032 188.361 109.144 188.207 109.255 188.054C109.856 187.232 110.501 186.441 111.195 185.68C111.994 184.803 112.855 183.968 113.766 183.183L115.148 181.999L127.998 180.27L134.721 193.452L135.867 195.697L137.106 198.126C136.394 201.433 136.078 204.371 136.028 207.052C136.01 208.058 136.028 209.027 136.084 209.965C136.164 211.431 136.313 212.824 136.524 214.161C137.032 217.443 137.844 220.424 138.606 223.442C139.008 225.019 139.393 226.601 139.709 228.245C139.857 229.018 141.425 230.54 141.648 231.239C141.952 232.178 140.341 233.901 140.799 234.693V234.693Z" fill="#9100FF"/>
<path d="M164.959 208.252C167.637 207.152 170.38 207.628 171.087 209.315C171.795 211.002 170.197 213.261 167.519 214.361C166.347 214.842 165.163 215.022 164.142 214.93L152.737 219.45L150.708 214.106L162.166 210.218C162.822 209.437 163.787 208.733 164.959 208.252L164.959 208.252V208.252Z" fill="#FFB6B6"/>
<path d="M105.191 195.986C104.906 196.863 104.671 197.752 104.479 198.648L125.669 226.97L138.606 223.443L156.314 218.615L156.221 218.069L155.292 212.548L154.982 210.702L136.524 214.162L131.648 215.076L123.401 202.519H123.395L118.63 195.262C116.375 190.937 112.948 188.447 109.256 188.054L105.191 195.986H105.191V195.986Z" fill="#9100FF"/>
<path d="M225.009 286.641C227.076 286.641 228.752 284.982 228.752 282.936C228.752 280.889 227.076 279.23 225.009 279.23C222.942 279.23 221.267 280.889 221.267 282.936C221.267 284.982 222.942 286.641 225.009 286.641Z" fill="#E6E6E6"/>
<path d="M347.863 252.368L347.538 277.42L341.242 299.752L336.209 297.893L338.444 277.424L338.15 249.723L347.863 252.368Z" fill="#FFB6B6"/>
<path d="M341.22 303.353C341.811 300.142 340.728 297.257 338.802 296.91C336.877 296.563 334.837 298.884 334.246 302.096C333.655 305.307 334.738 308.191 336.664 308.538C338.59 308.886 340.63 306.564 341.22 303.353Z" fill="#FFB6B6"/>
<path d="M340.223 222.539C340.223 222.539 351.008 222.686 350.999 228.359C350.994 231.561 350.299 260.639 348.366 278.303C346.875 291.926 344.029 295.479 344.029 295.479L337.213 280.144L340.223 222.539V222.539Z" fill="#E6E6E6"/>
<path d="M339.946 273.722H303.521C306.574 266.977 308.451 260.553 305.517 255.444L339.946 253.468C338.225 260.365 338.015 267.135 339.946 273.722Z" fill="#FFB6B6"/>
<path d="M335.455 213.948L320.985 212.96L314.997 220.37L311.962 220.917C307.412 221.736 304.172 225.756 304.375 230.33L305.555 256.899L340.142 259.396L348.428 224.797L338.449 220.864L335.455 213.948Z" fill="#E6E6E6"/>
<path d="M247.21 221.963C248.237 222.877 248.97 223.945 249.357 224.981L259.693 233.08L255.656 237.837L245.606 229.109C244.525 228.837 243.375 228.228 242.348 227.314C240.003 225.225 239.19 222.334 240.533 220.856C241.875 219.379 244.865 219.874 247.21 221.963Z" fill="#FFB6B6"/>
<path d="M320.284 228.781V228.781L280.681 255.256L252.293 235.698L256.555 228.054L278.898 240.91L299.503 225.246C306.84 218.423 316.036 219.746 320.284 228.781H320.284Z" fill="#E6E6E6"/>
<path d="M327.362 210.741C333.29 210.741 338.097 205.983 338.097 200.113C338.097 194.243 333.29 189.485 327.362 189.485C321.433 189.485 316.626 194.243 316.626 200.113C316.626 205.983 321.433 210.741 327.362 210.741Z" fill="#FFB6B6"/>
<path d="M341.953 197.502V199.563L329.846 196.189L320.769 198.072C320.663 196.704 320.255 195.361 319.573 194.171C320.047 196.08 320.1 197.556 319.598 198.318L318.377 198.569C318.179 198.036 317.795 197.569 317.293 197.287C317.243 197.257 317.181 197.232 317.126 197.25C317.039 197.281 317.033 197.392 317.033 197.477C317.045 197.931 317.057 198.385 317.076 198.839L313.569 199.563V197.502C310.205 190.007 319.072 183.522 327.764 183.455C331.686 183.424 335.23 185.025 337.802 187.564C340.367 190.11 341.953 193.619 341.953 197.502V197.502Z" fill="#2F2E41"/>
<path d="M348.764 221.67L347.85 221.595C347.915 221.299 347.98 221.007 348.04 220.711C348.546 218.227 347.431 215.064 347.349 212.678C346.919 215.199 347.655 218.302 346.893 220.696C346.808 220.962 343.5 222.678 343.409 222.941C339.748 221.615 335.935 217.379 331.617 219.853C329.064 221.316 326.15 220.675 323.251 220.005C322.533 219.839 322.434 216.331 321.723 216.193C320.452 215.946 318.584 219.136 317.386 219.26L322.343 200.244C322.343 189.899 321.375 179.046 334.611 182.704C337.94 183.624 341.235 184.345 343.692 187.065C346.149 189.789 347.898 193.595 348.518 197.93C348.892 200.546 351.224 209.425 348.764 221.67V221.67Z" fill="#2F2E41"/>
<path d="M340.217 412.897L334.308 413.035L331.014 386.753L339.734 386.549L340.217 412.897Z" fill="#FFB7B7"/>
<path d="M319.944 425.101C319.944 426.09 320.653 426.891 321.527 426.891H333.255C333.255 426.891 334.409 422.298 339.115 420.321L339.44 426.891H345.49L344.757 416.327C344.757 416.327 346.376 410.675 343.014 407.785C339.653 404.896 342.376 405.299 342.376 405.299L341.053 398.76L331.911 399.824L331.843 410.088L327.406 420.276L320.899 423.459C320.319 423.742 319.944 424.388 319.944 425.101H319.944H319.944Z" fill="#2F2E41"/>
<path d="M322.24 408.614L316.56 410.232L306.638 385.638L315.02 383.25L322.24 408.614Z" fill="#FFB7B7"/>
<path d="M305.759 425.512C306.012 426.468 306.903 427.065 307.748 426.845L319.093 423.899C319.093 423.899 319.032 419.166 323.077 416.072L325.075 422.345L330.927 420.825L327.511 410.791C327.511 410.791 327.627 404.917 323.636 402.967C319.644 401.017 322.38 400.722 322.38 400.722L319.426 394.73L310.855 398.056L313.421 408.001L311.74 418.97L306.261 423.684C305.774 424.103 305.576 424.822 305.759 425.512L305.759 425.512L305.759 425.512Z" fill="#2F2E41"/>
<path d="M336.593 272.169L340.311 273.396C346.123 284.024 348.588 298.138 348.261 315.157L341.658 391.597H330.854L322.948 306.44L309.007 338.402L319.207 391.597L309.007 392.626L288.462 337.313L302.77 273.025L336.593 272.169V272.169Z" fill="#2F2E41"/>
</svg>
