<svg width="985" height="936" viewBox="0 0 985 936" fill="none" xmlns="http://www.w3.org/2000/svg">
<g clip-path="url(#clip0_572_513)">
<path d="M560.33 228.491V231.703H563.542C564.728 231.703 565.243 232.533 565.243 233.027L565.24 312.515C565.24 313.008 564.725 313.838 563.538 313.838H560.326V317.05V786.612C560.326 824.368 527.091 855.405 485.543 855.405H200.03C158.482 855.405 125.247 824.368 125.247 786.612V104.079C125.247 66.3216 158.483 35.2852 200.031 35.2858H485.547C527.095 35.2858 560.33 66.3227 560.33 104.08V228.491Z" stroke="white" stroke-width="6.42391"/>
<path d="M481.813 607.849H209.117C206.33 607.846 204.071 605.609 204.068 602.85V535.881C204.072 533.121 206.33 530.885 209.117 530.881H481.813C484.601 530.885 486.859 533.121 486.863 535.881V602.851C486.858 605.61 484.6 607.845 481.813 607.849V607.849ZM209.117 532.881C207.444 532.882 206.089 534.224 206.087 535.881V602.851C206.089 604.507 207.444 605.85 209.117 605.851H481.813C483.486 605.85 484.842 604.507 484.843 602.851V535.881C484.842 534.224 483.486 532.882 481.813 532.881H209.117V532.881Z" fill="#E6E6E6"/>
<path d="M481.813 736.915H209.117C206.33 736.912 204.071 734.675 204.068 731.916V664.947C204.072 662.187 206.33 659.951 209.117 659.947H481.813C484.601 659.951 486.859 662.187 486.863 664.947V731.917C486.859 734.676 484.601 736.913 481.813 736.916V736.915ZM209.117 661.947C207.444 661.948 206.089 663.29 206.087 664.947V731.917C206.089 733.573 207.444 734.916 209.117 734.917H481.813C483.486 734.916 484.842 733.573 484.843 731.917V664.947C484.842 663.29 483.486 661.948 481.813 661.947H209.117V661.947Z" fill="#E6E6E6"/>
<path d="M223.571 331.763C223.877 331.426 224.184 331.106 224.5 330.779C232.195 322.767 236.24 318.017 245.632 318.017C247.375 318.017 255.057 318.095 256.649 318.252C263.244 318.892 268.518 320.86 272.472 324.155C278.31 329.02 281.236 336.744 281.251 347.327C281.251 347.913 281.286 349.005 281.34 350.453C281.688 358.897 287.539 367.864 288.674 370.91C290.519 375.87 287.539 391.757 285.151 394.998C283.763 396.891 283.483 392.146 279.217 393.035C278.435 393.203 275.159 399.472 274.274 399.593C269.7 400.193 265.089 400.463 260.476 400.402C259.871 400.402 259.264 400.402 258.632 400.388H258.625C256.44 400.375 254.106 400.314 251.629 400.22C245.052 400.087 238.5 399.363 232.055 398.057H232.049C231.198 397.868 230.361 397.652 229.544 397.424L229.394 397.383L229.326 397.252C228.16 394.902 227.495 392.34 227.373 389.725C226.126 391.391 225.207 393.275 224.664 395.278L224.562 395.662L222.498 389.04C219.62 387.815 218.822 392.306 216.966 389.808C215.191 387.203 214.127 384.187 213.876 381.055C212.946 372.547 216.479 339.592 223.571 331.763L223.571 331.763Z" fill="#2F2E41"/>
<path d="M221.277 605.388H262.064L268.903 571.908L271.121 605.388H311.663C311.683 580.574 301.35 519.441 302.587 518.928C303.823 518.414 301.956 516.785 301.956 516.785L295.344 494.306L294.724 492.189H247.513C244.796 494.716 242.29 497.456 240.02 500.383C239.25 501.354 238.448 502.405 237.624 503.536C237.052 504.337 236.46 505.18 235.868 506.063C230.608 513.816 226.675 522.376 224.23 531.397V531.404C223.815 532.947 223.448 534.525 223.128 536.14V536.147C222.842 537.582 222.59 539.037 222.393 540.526C222.243 541.611 222.114 542.709 222.018 543.82C221.451 549.979 221.65 556.184 222.61 562.295L221.277 605.388V605.388Z" fill="#2F2E41"/>
<path d="M256.196 377.625C269.345 377.625 280.005 367.072 280.005 354.053C280.005 341.034 269.345 330.48 256.196 330.48C243.046 330.48 232.386 341.034 232.386 354.053C232.386 367.072 243.046 377.625 256.196 377.625Z" fill="#FFB6B6"/>
<path d="M240.551 324.755H263.861C266.68 324.106 269.586 323.903 272.47 324.155C276.014 324.423 279.399 325.719 282.203 327.882C286.374 331.197 288.675 336.48 288.675 342.759C288.663 344.766 289.08 347.408 288.675 349.376L285.841 344.751L285.092 349.376C282.942 349.921 283.498 350.028 281.338 350.453C280.821 350.554 280.297 350.655 279.772 350.75C276.941 351.269 274.241 352.261 274.241 352.261L271.027 351.895C269.018 350.067 268.681 345.55 267.608 343.066C267.398 343.791 267.139 345.068 266.887 346.451C266.238 350.012 263.099 352.62 259.444 352.622L259.382 352.622C250.439 352.615 250.442 345.762 241.76 343.642C241.188 343.511 247.026 383.579 246.462 383.431L228.578 372.049L230.887 334.323C230.893 329.041 235.216 324.761 240.551 324.755L240.551 324.755H240.551H240.551Z" fill="#2F2E41"/>
<path d="M216.114 322.665C211.822 331.353 214.944 333.305 223.719 337.555C232.495 341.804 243.6 346.742 247.893 338.054C252.185 329.366 244.668 322.267 235.892 318.018C237.765 310.817 225.217 307.517 219.127 318.354C221.219 320.085 216.401 324.79 217.437 327.288C215.299 325.578 219.005 322.305 216.277 322.637C216.224 322.645 216.173 322.654 216.114 322.665L216.114 322.665V322.665Z" fill="#2F2E41"/>
<path d="M481.813 736.915H209.117C206.33 736.912 204.071 734.675 204.068 731.916V664.947C204.072 662.187 206.33 659.951 209.117 659.947H481.813C484.601 659.951 486.859 662.187 486.863 664.947V731.917C486.859 734.676 484.601 736.913 481.813 736.916V736.915ZM209.117 661.947C207.444 661.948 206.089 663.29 206.087 664.947V731.917C206.089 733.573 207.444 734.916 209.117 734.917H481.813C483.486 734.916 484.842 733.573 484.843 731.917V664.947C484.842 663.29 483.486 661.948 481.813 661.947H209.117V661.947Z" fill="#E6E6E6"/>
<path d="M262.075 684.431C260.122 684.431 258.54 685.998 258.54 687.931C258.54 689.864 260.122 691.431 262.075 691.431H428.721C430.672 691.505 432.315 689.999 432.389 688.067C432.464 686.135 430.943 684.509 428.992 684.435C428.94 684.433 428.888 684.432 428.836 684.432H262.075V684.431V684.431Z" fill="#E6E6E6"/>
<path d="M262.075 705.429C260.122 705.429 258.54 706.996 258.54 708.929C258.54 710.862 260.122 712.429 262.075 712.429H428.721C430.672 712.503 432.315 710.997 432.389 709.065C432.464 707.133 430.943 705.507 428.992 705.433C428.94 705.431 428.888 705.43 428.836 705.43H262.075V705.429V705.429Z" fill="#E6E6E6"/>
<path d="M481.813 214.372H209.117C206.33 214.369 204.071 212.132 204.068 209.373V142.404C204.072 139.644 206.33 137.408 209.117 137.404H481.813C484.601 137.408 486.859 139.644 486.863 142.404V209.374C486.859 212.134 484.601 214.37 481.813 214.373V214.372V214.372ZM209.117 139.404C207.444 139.405 206.089 140.747 206.087 142.404V209.374C206.089 211.03 207.444 212.373 209.117 212.374H481.813C483.486 212.373 484.842 211.03 484.843 209.374V142.404C484.842 140.747 483.486 139.405 481.813 139.404H209.117V139.404Z" fill="#E6E6E6"/>
<path d="M293.451 161.889C291.498 161.889 289.916 163.455 289.916 165.388C289.916 167.321 291.498 168.888 293.451 168.888H460.097C462.048 168.962 463.691 167.456 463.765 165.524C463.84 163.593 462.319 161.966 460.367 161.892C460.316 161.89 460.264 161.89 460.212 161.89H293.451V161.889H293.451V161.889Z" fill="#E6E6E6"/>
<path d="M293.451 182.886C291.498 182.886 289.916 184.453 289.916 186.386C289.916 188.319 291.498 189.886 293.451 189.886H460.097C462.048 189.96 463.691 188.454 463.765 186.522C463.84 184.59 462.319 182.964 460.367 182.89C460.316 182.888 460.264 182.887 460.212 182.888H293.451V182.886H293.451V182.886Z" fill="#E6E6E6"/>
<path d="M244.467 196.885C256.18 196.885 265.676 187.484 265.676 175.887C265.676 164.29 256.18 154.889 244.467 154.889C232.753 154.889 223.257 164.29 223.257 175.887C223.257 187.484 232.753 196.885 244.467 196.885Z" fill="#E6E6E6"/>
<path d="M117.457 226.163C115.269 226.163 113.489 227.925 113.489 230.091V261.52C113.489 263.687 115.269 265.449 117.457 265.449C119.646 265.449 121.426 263.687 121.426 261.52V230.091C121.426 227.925 119.646 226.163 117.457 226.163Z" fill="#3F3D56"/>
<path d="M117.457 320.45C115.269 320.45 113.489 322.212 113.489 324.378V385.272C113.489 387.439 115.269 389.2 117.457 389.2C119.646 389.2 121.426 387.439 121.426 385.272V324.378C121.426 322.212 119.646 320.45 117.457 320.45V320.45Z" fill="#3F3D56"/>
<path d="M117.457 406.879C115.269 406.879 113.489 408.641 113.489 410.808V471.702C113.489 473.868 115.269 475.63 117.457 475.63C119.646 475.63 121.426 473.868 121.426 471.702V410.808C121.426 408.641 119.646 406.879 117.457 406.879Z" fill="#3F3D56"/>
<path d="M378.604 350.69C385.932 350.69 391.872 344.809 391.872 337.554C391.872 330.3 385.932 324.419 378.604 324.419C371.277 324.419 365.337 330.3 365.337 337.554C365.337 344.809 371.277 350.69 378.604 350.69Z" fill="#E6E6E6"/>
<path d="M437.167 335.413C436.637 334.507 435.681 333.955 434.62 333.955C433.559 333.955 432.603 334.507 432.073 335.413L426.368 348.063C424.105 333.331 415.702 320.573 405.166 308.499C404.383 307.172 403.004 306.384 401.451 306.384C399.899 306.384 398.519 307.172 397.736 308.499C392.754 330.582 379.097 351.889 361.069 372.804C359.498 376.681 362.381 380.901 366.6 380.901H451.828C457.216 380.901 461.034 375.694 459.365 370.622C456.219 356.353 449.646 344.125 437.167 335.413V335.413Z" fill="#9100FF"/>
<path d="M411.243 274.505C369.543 274.505 335.618 308.092 335.618 349.376C335.618 366.111 341.191 381.584 350.61 394.062C364.409 412.373 386.446 424.247 411.243 424.247C436.73 424.247 459.311 411.703 473.016 392.526C481.733 380.323 486.867 365.428 486.867 349.376C486.867 308.092 452.943 274.505 411.243 274.505V274.505ZM471.543 390.004C458.395 409.076 436.265 421.62 411.243 421.62C386.897 421.62 365.311 409.759 352.057 391.58C343.38 379.706 338.272 365.112 338.272 349.376C338.272 309.537 371.003 277.132 411.243 277.132C451.47 277.132 484.214 309.537 484.214 349.376C484.214 364.429 479.544 378.418 471.543 390.004V390.004Z" fill="#E6E6E6"/>
<path d="M335.362 374.448C338.825 369.347 344.291 366.982 347.569 369.164C350.847 371.346 350.697 377.249 347.234 382.35C345.718 384.582 343.818 386.291 341.886 387.323L326.937 408.752L316.929 401.593L332.728 381.228C332.965 379.067 333.846 376.68 335.362 374.448L335.362 374.448V374.448Z" fill="#FFB6B6"/>
<path d="M332.314 403.075L291.397 449.6L287.629 453.882L270.103 447.603L243.063 437.896H243.05L222.831 430.646C223.043 428.872 223.335 427.112 223.719 425.365C224.131 423.448 224.635 421.543 225.245 419.665C227.076 413.99 229.769 408.592 233.246 403.679C234.546 404.204 235.846 404.835 237.159 405.557L267.303 418.482L284.073 425.667L290.933 419.047L320.479 390.517L323.239 393.446L323.252 393.46L331.491 402.208L331.504 402.221L332.314 403.075H332.314Z" fill="#9100FF"/>
<path d="M301.493 502.548L232.98 499.619C234.002 497.531 232.449 495.363 232.967 493.537C233.431 491.948 236.032 490.674 236.111 489.19C236.589 481.151 235.355 468.068 226.041 454.026C224.118 451.11 223.176 447.301 222.738 443.059C222.3 438.882 222.34 434.731 222.831 430.646C223.043 428.872 223.335 427.112 223.719 425.365C224.131 423.448 224.635 421.543 225.245 419.665C227.076 413.99 229.769 408.592 233.246 403.679C233.471 403.337 233.71 403.009 233.949 402.681C235.236 400.92 236.615 399.226 238.101 397.597C239.813 395.719 241.657 393.933 243.607 392.251L246.566 389.716L274.083 386.012L288.478 414.24L290.933 419.047L293.586 424.249C292.06 431.329 291.384 437.62 291.277 443.361C291.238 445.515 291.277 447.59 291.397 449.6C291.569 452.739 291.888 455.721 292.339 458.584C293.427 465.612 295.165 471.996 296.797 478.458C297.659 481.834 298.482 485.223 299.158 488.743C299.477 490.398 302.833 493.656 303.311 495.153C303.961 497.163 300.512 500.854 301.493 502.548V502.548Z" fill="#9100FF"/>
<path d="M353.228 445.931C358.961 443.575 364.837 444.594 366.351 448.206C367.865 451.819 364.444 456.657 358.71 459.012C356.201 460.043 353.664 460.427 351.477 460.231L327.056 469.91L322.712 458.467L347.248 450.14C348.651 448.469 350.718 446.962 353.228 445.931L353.228 445.931V445.931Z" fill="#FFB6B6"/>
<path d="M225.246 419.665C224.636 421.544 224.131 423.448 223.72 425.366L269.095 486.012L296.797 478.459L334.716 468.121L334.517 466.952L332.527 455.13L331.863 451.177L292.34 458.585L281.898 460.542L264.239 433.654H264.226L254.023 418.115C249.194 408.855 241.857 403.522 233.949 402.681L225.246 419.665H225.246V419.665Z" fill="#9100FF"/>
<path d="M481.813 613.785C486.239 613.785 489.827 610.233 489.827 605.851C489.827 601.47 486.239 597.917 481.813 597.917C477.387 597.917 473.799 601.47 473.799 605.851C473.799 610.233 477.387 613.785 481.813 613.785Z" fill="#E6E6E6"/>
<path d="M744.881 540.397L744.185 594.04L730.703 641.86L719.926 637.88L724.711 594.048L724.082 534.733L744.881 540.397Z" fill="#FFB6B6"/>
<path d="M730.656 649.57C731.92 642.694 729.602 636.518 725.479 635.774C721.355 635.031 716.987 640.002 715.722 646.879C714.458 653.755 716.776 659.931 720.899 660.675C725.023 661.418 729.391 656.447 730.656 649.57Z" fill="#FFB6B6"/>
<path d="M728.521 476.524C728.521 476.524 751.616 476.839 751.597 488.985C751.586 495.843 750.098 558.107 745.958 595.932C742.766 625.102 736.671 632.711 736.671 632.711L722.077 599.873L728.521 476.524V476.524Z" fill="#E6E6E6"/>
<path d="M727.927 586.121H649.931C656.468 571.679 660.487 557.924 654.204 546.983L727.927 542.752C724.243 557.522 723.793 572.017 727.927 586.121Z" fill="#FFB6B6"/>
<path d="M718.311 458.128L687.326 456.013L674.505 471.88L668.005 473.05C658.262 474.804 651.324 483.412 651.759 493.207L654.287 550.099L728.347 555.446L746.091 481.36L724.722 472.937L718.311 458.128Z" fill="#E6E6E6"/>
<path d="M529.353 475.29C531.551 477.248 533.12 479.535 533.949 481.753L556.081 499.096L547.438 509.28L525.918 490.592C523.603 490.01 521.14 488.706 518.941 486.748C513.919 482.275 512.179 476.084 515.054 472.92C517.929 469.756 524.331 470.817 529.353 475.29Z" fill="#FFB6B6"/>
<path d="M685.825 489.89V489.89L601.024 546.581L540.237 504.701L549.363 488.334L597.206 515.861L641.327 482.321C657.038 467.71 676.729 470.543 685.825 489.89H685.825Z" fill="#E6E6E6"/>
<path d="M700.981 451.261C713.676 451.261 723.968 441.072 723.968 428.503C723.968 415.934 713.676 405.745 700.981 405.745C688.285 405.745 677.994 415.934 677.994 428.503C677.994 441.072 688.285 451.261 700.981 451.261Z" fill="#FFB6B6"/>
<path d="M732.225 422.912V427.325L706.301 420.101L686.864 424.133C686.638 421.204 685.763 418.328 684.303 415.779C685.319 419.866 685.432 423.028 684.356 424.659L681.742 425.197C681.318 424.054 680.495 423.056 679.421 422.452C679.315 422.386 679.182 422.334 679.063 422.373C678.877 422.439 678.864 422.675 678.864 422.859C678.89 423.831 678.917 424.803 678.956 425.775L671.447 427.325V422.912C664.243 406.863 683.231 392.976 701.843 392.832C710.241 392.767 717.83 396.195 723.336 401.633C728.829 407.084 732.225 414.597 732.225 422.912V422.912Z" fill="#2F2E41"/>
<path d="M746.81 474.663L744.853 474.502C744.992 473.868 745.131 473.243 745.259 472.609C746.344 467.29 743.956 460.518 743.78 455.408C742.858 460.807 744.434 467.45 742.804 472.577C742.622 473.146 735.538 476.822 735.344 477.384C727.504 474.545 719.339 465.475 710.094 470.773C704.626 473.906 698.387 472.533 692.179 471.098C690.642 470.743 690.429 463.23 688.908 462.935C686.184 462.406 682.184 469.236 679.621 469.503L690.235 428.783C690.235 406.632 688.162 383.391 716.504 391.224C723.633 393.194 730.688 394.738 735.949 400.563C741.21 406.395 744.956 414.547 746.283 423.829C747.083 429.429 752.077 448.444 746.81 474.663V474.663Z" fill="#2F2E41"/>
<path d="M728.508 884.138L715.855 884.433L708.802 828.156L727.474 827.719L728.508 884.138Z" fill="#FFB7B7"/>
<path d="M685.098 910.271C685.098 912.388 686.615 914.103 688.486 914.103H713.601C713.601 914.103 716.072 904.268 726.149 900.035L726.844 914.103H739.8L738.23 891.482C738.23 891.482 741.696 879.379 734.498 873.193C727.3 867.006 733.13 867.867 733.13 867.867L730.299 853.866L710.722 856.146L710.578 878.124L701.077 899.939L687.142 906.755C685.901 907.361 685.098 908.743 685.098 910.271H685.098H685.098Z" fill="#2F2E41"/>
<path d="M690.014 874.966L677.851 878.431L656.604 825.768L674.553 820.654L690.014 874.966Z" fill="#FFB7B7"/>
<path d="M654.724 911.151C655.266 913.198 657.173 914.476 658.983 914.006L683.275 907.697C683.275 907.697 683.145 897.562 691.806 890.936L696.085 904.37L708.617 901.115L701.3 879.628C701.3 879.628 701.55 867.051 693.003 862.875C684.455 858.7 690.315 858.068 690.315 858.068L683.987 845.237L665.635 852.36L671.129 873.655L667.531 897.143L655.799 907.236C654.754 908.134 654.332 909.673 654.724 911.151L654.724 911.151L654.724 911.151Z" fill="#2F2E41"/>
<path d="M720.749 582.797L728.71 585.424C741.156 608.182 746.433 638.404 745.733 674.847L731.593 838.528H708.459L691.529 656.181L661.678 724.622L683.519 838.528L661.678 840.732L617.686 722.289L648.323 584.629L720.749 582.797V582.797Z" fill="#2F2E41"/>
</g>
<defs>
<clipPath id="clip0_572_513">
<rect width="985" height="935.987" fill="white"/>
</clipPath>
</defs>
</svg>
