<svg width="139" height="139" viewBox="0 0 139 139" fill="none" xmlns="http://www.w3.org/2000/svg">
<g filter="url(#filter0_ii_728_146)">
<circle cx="69.5" cy="69.5" r="69.5" fill="url(#paint0_linear_728_146)"/>
</g>
<g filter="url(#filter1_ii_728_146)">
<circle cx="69.5" cy="69.5" r="69.5" fill="url(#paint1_linear_728_146)"/>
</g>
<circle cx="69.5" cy="69.5" r="69.5" fill="url(#paint2_linear_728_146)"/>
<path d="M84.3353 67.1454L84.3396 67.1393C85.2461 65.8511 85.9971 64.323 86.5647 62.5169C87.0967 60.8238 87.3967 58.7911 87.3967 56.3696V48.6655C87.3967 47.6641 87.2189 46.4829 86.791 45.0984L86.781 45.0659L86.7715 45.0332C86.4369 43.8834 85.8674 42.7886 85.0153 41.7348L84.9853 41.6977L84.9562 41.6599C84.2184 40.7027 83.2063 39.8502 81.8226 39.1353L81.7988 39.123L81.7751 39.1104C80.657 38.5141 79.0873 38.1086 76.8864 38.1086H31.0797C30.7137 38.1086 30.451 38.1715 30.2466 38.2567C30.0095 38.3555 29.8239 38.4778 29.6641 38.6283C29.5123 38.7987 29.3743 39.0108 29.2567 39.293L29.2567 39.293C29.164 39.5156 29.1086 39.7655 29.1086 40.0797V96.4432H32.9579V46.0666V41.9579H37.0666H76.8864C77.2976 41.9579 77.707 41.9832 78.111 42.0275C79.0645 42.1273 79.9675 42.4563 80.7605 42.9969C81.8136 43.6599 82.4766 44.5885 82.8747 45.4664C83.4557 46.6479 83.5475 47.888 83.5475 48.7583V56.3696C83.5475 58.3764 83.2322 60.3156 82.5112 62.1185L82.5043 62.1355L82.4974 62.1524C81.7883 63.8806 80.7505 65.4058 79.3901 66.6824C78.0927 67.9283 76.5722 68.8873 74.8863 69.5862L74.8623 69.5961L74.8382 69.6058C73.1705 70.2726 71.385 70.6614 69.5165 70.8139L69.3497 70.8275H69.1823H46.0018V75.9566C46.6621 75.8308 47.6347 75.5561 48.997 74.9908C51.3012 74.0345 53.6197 74.1445 55.691 75.0756C57.5929 75.9306 59.0866 77.3818 60.2446 78.8032C62.5285 81.6066 64.4818 85.5569 66.1285 88.8895L66.1323 88.8972C67.9223 92.5198 69.3734 95.4567 70.8031 97.2663C71.1183 97.6653 71.3653 97.9192 71.5396 98.0771C74.0302 96.6169 76.4806 95.824 78.7597 95.4632L66.1387 81.5456L59.91 74.677H69.1823C70.3548 74.677 71.6561 74.5424 73.0956 74.2491L73.1031 74.2475L73.1106 74.246C74.4891 73.9705 75.8569 73.5298 77.2179 72.915C78.5902 72.2781 79.9138 71.4703 81.1905 70.4802L84.3353 67.1454ZM84.3353 67.1454L84.331 67.1516M84.3353 67.1454L84.331 67.1516M84.331 67.1516C83.4132 68.4663 82.366 69.5685 81.1908 70.48L84.331 67.1516Z" stroke="url(#paint3_linear_728_146)" stroke-width="8.21728"/>
<path d="M115.982 100.322V97.2069H118.641V100.322H115.982Z" fill="white"/>
<path d="M95.8368 89.1348C96.7555 89.3426 97.6741 89.5059 98.5928 89.6247C99.5114 89.7434 100.437 89.8028 101.371 89.8028C102.349 89.8028 103.253 89.7138 104.083 89.5356C104.927 89.3426 105.653 89.0309 106.261 88.6004C106.883 88.1551 107.372 87.5687 107.728 86.8414C108.083 86.114 108.261 85.2085 108.261 84.1249C108.261 83.2491 108.142 82.4475 107.905 81.7201C107.668 80.9928 107.313 80.3693 106.838 79.8498C106.379 79.3302 105.809 78.9295 105.127 78.6474C104.446 78.3505 103.653 78.2021 102.749 78.2021C101.904 78.2021 101.141 78.3579 100.46 78.6697C99.793 78.9814 99.2003 79.4045 98.6817 79.9388C98.1779 80.4584 97.7408 81.067 97.3704 81.7647C97.0148 82.4623 96.7184 83.1897 96.4813 83.9468C96.2443 84.7038 96.0739 85.4683 95.9702 86.2402C95.8664 87.0121 95.8146 87.7395 95.8146 88.4223C95.8146 88.541 95.8146 88.6598 95.8146 88.7785C95.8146 88.8973 95.822 89.0161 95.8368 89.1348ZM114.351 84.0581C114.351 85.112 114.18 86.0547 113.84 86.8859C113.499 87.7024 113.032 88.4223 112.439 89.0457C111.861 89.6692 111.187 90.1962 110.417 90.6267C109.646 91.0571 108.824 91.4134 107.95 91.6954C107.076 91.9626 106.172 92.1556 105.238 92.2743C104.32 92.3931 103.423 92.4525 102.549 92.4525C101.438 92.4525 100.341 92.3783 99.2596 92.2298C98.1779 92.0666 97.1111 91.8142 96.059 91.4728C96.222 92.4525 96.4813 93.3877 96.8369 94.2783C97.1925 95.1541 97.6667 95.926 98.2594 96.594C98.8521 97.2472 99.5781 97.7667 100.437 98.1527C101.312 98.5386 102.342 98.7316 103.527 98.7316C104.312 98.7316 105.06 98.6128 105.772 98.3753C106.483 98.1378 107.135 97.8038 107.728 97.3733C108.32 96.9429 108.839 96.4307 109.283 95.8369C109.743 95.2432 110.113 94.5826 110.395 93.8553L113.64 95.0577C113.151 96.2303 112.476 97.2472 111.617 98.1081C110.772 98.9543 109.809 99.6593 108.728 100.223C107.661 100.773 106.52 101.181 105.305 101.448C104.105 101.715 102.912 101.849 101.727 101.849C99.7707 101.849 97.9631 101.522 96.3035 100.869C94.644 100.201 93.2141 99.2734 92.014 98.0859C90.8138 96.8983 89.8729 95.4807 89.1913 93.833C88.5097 92.1853 88.1689 90.3817 88.1689 88.4223C88.1689 86.4629 88.5097 84.6593 89.1913 83.0116C89.8729 81.3639 90.8138 79.9462 92.014 78.7587C93.2141 77.5712 94.644 76.6509 96.3035 75.9977C97.9631 75.3297 99.7707 74.9957 101.727 74.9957C102.675 74.9957 103.645 75.0625 104.638 75.1961C105.631 75.3297 106.594 75.545 107.527 75.8418C108.461 76.1239 109.343 76.495 110.172 76.9552C111.002 77.4153 111.721 77.9868 112.328 78.6697C112.951 79.3377 113.44 80.117 113.795 81.0076C114.166 81.8983 114.351 82.9151 114.351 84.0581Z" fill="url(#paint4_linear_728_146)"/>
<defs>
<filter id="filter0_ii_728_146" x="-1.74146" y="-1.74146" width="142.483" height="142.483" filterUnits="userSpaceOnUse" color-interpolation-filters="sRGB">
<feFlood flood-opacity="0" result="BackgroundImageFix"/>
<feBlend mode="normal" in="SourceGraphic" in2="BackgroundImageFix" result="shape"/>
<feColorMatrix in="SourceAlpha" type="matrix" values="0 0 0 0 0 0 0 0 0 0 0 0 0 0 0 0 0 0 127 0" result="hardAlpha"/>
<feMorphology radius="0.870729" operator="erode" in="SourceAlpha" result="effect1_innerShadow_728_146"/>
<feOffset dx="1.74146" dy="1.74146"/>
<feGaussianBlur stdDeviation="2.61219"/>
<feComposite in2="hardAlpha" operator="arithmetic" k2="-1" k3="1"/>
<feColorMatrix type="matrix" values="0 0 0 0 0.567948 0 0 0 0 0 0 0 0 0 1 0 0 0 0.17 0"/>
<feBlend mode="normal" in2="shape" result="effect1_innerShadow_728_146"/>
<feColorMatrix in="SourceAlpha" type="matrix" values="0 0 0 0 0 0 0 0 0 0 0 0 0 0 0 0 0 0 127 0" result="hardAlpha"/>
<feMorphology radius="0.870729" operator="erode" in="SourceAlpha" result="effect2_innerShadow_728_146"/>
<feOffset dx="-1.74146" dy="-1.74146"/>
<feGaussianBlur stdDeviation="2.61219"/>
<feComposite in2="hardAlpha" operator="arithmetic" k2="-1" k3="1"/>
<feColorMatrix type="matrix" values="0 0 0 0 0.0545992 0 0 0 0 0.133207 0 0 0 0 0.408333 0 0 0 0.43 0"/>
<feBlend mode="normal" in2="effect1_innerShadow_728_146" result="effect2_innerShadow_728_146"/>
</filter>
<filter id="filter1_ii_728_146" x="-1.74146" y="-1.74146" width="142.483" height="142.483" filterUnits="userSpaceOnUse" color-interpolation-filters="sRGB">
<feFlood flood-opacity="0" result="BackgroundImageFix"/>
<feBlend mode="normal" in="SourceGraphic" in2="BackgroundImageFix" result="shape"/>
<feColorMatrix in="SourceAlpha" type="matrix" values="0 0 0 0 0 0 0 0 0 0 0 0 0 0 0 0 0 0 127 0" result="hardAlpha"/>
<feMorphology radius="0.870729" operator="erode" in="SourceAlpha" result="effect1_innerShadow_728_146"/>
<feOffset dx="1.74146" dy="1.74146"/>
<feGaussianBlur stdDeviation="2.61219"/>
<feComposite in2="hardAlpha" operator="arithmetic" k2="-1" k3="1"/>
<feColorMatrix type="matrix" values="0 0 0 0 0.567948 0 0 0 0 0 0 0 0 0 1 0 0 0 0.17 0"/>
<feBlend mode="normal" in2="shape" result="effect1_innerShadow_728_146"/>
<feColorMatrix in="SourceAlpha" type="matrix" values="0 0 0 0 0 0 0 0 0 0 0 0 0 0 0 0 0 0 127 0" result="hardAlpha"/>
<feMorphology radius="0.870729" operator="erode" in="SourceAlpha" result="effect2_innerShadow_728_146"/>
<feOffset dx="-1.74146" dy="-1.74146"/>
<feGaussianBlur stdDeviation="2.61219"/>
<feComposite in2="hardAlpha" operator="arithmetic" k2="-1" k3="1"/>
<feColorMatrix type="matrix" values="0 0 0 0 0.0545992 0 0 0 0 0.133207 0 0 0 0 0.408333 0 0 0 0.43 0"/>
<feBlend mode="normal" in2="effect1_innerShadow_728_146" result="effect2_innerShadow_728_146"/>
</filter>
<linearGradient id="paint0_linear_728_146" x1="166.196" y1="176.067" x2="-58.0174" y2="-176.268" gradientUnits="userSpaceOnUse">
<stop/>
<stop offset="1" stop-color="#9100FF"/>
</linearGradient>
<linearGradient id="paint1_linear_728_146" x1="166.196" y1="176.067" x2="-58.0174" y2="-176.268" gradientUnits="userSpaceOnUse">
<stop/>
<stop offset="1" stop-color="#9100FF"/>
</linearGradient>
<linearGradient id="paint2_linear_728_146" x1="166.196" y1="176.067" x2="-58.0174" y2="-176.268" gradientUnits="userSpaceOnUse">
<stop/>
<stop offset="1" stop-color="#9100FF"/>
</linearGradient>
<linearGradient id="paint3_linear_728_146" x1="51.8531" y1="23.9301" x2="56.2168" y2="140.406" gradientUnits="userSpaceOnUse">
<stop stop-color="white"/>
<stop offset="1" stop-color="#9100FF"/>
</linearGradient>
<linearGradient id="paint4_linear_728_146" x1="101.26" y1="74.9957" x2="101.531" y2="124.629" gradientUnits="userSpaceOnUse">
<stop stop-color="white"/>
<stop offset="1" stop-color="#9100FF"/>
</linearGradient>
</defs>
</svg>
