<svg width="350" height="300" viewBox="0 0 350 300" fill="none" xmlns="http://www.w3.org/2000/svg">
<rect width="350" height="300" fill="#060C21"/>
<circle cx="175.5" cy="151.5" r="141.5" fill="#060C21"/>
<path d="M99.5449 93.6419C109.006 105.29 109.798 106.352 116.604 118.511C130.98 145.552 138.059 180.745 145.698 211.192C149.667 227.646 152.328 249.884 159.605 249.198C164.378 247.93 164.53 247.915 179.382 242.547C178.812 242.93 180.523 241.842 180.992 241.489C181.501 241.106 182.064 240.433 182.17 239.207C183.986 216.156 194.867 179.654 202.943 158.673C216 127.721 233.831 99.1507 256.703 77.3324C247.947 81.5575 252.16 69.2806 243.405 73.5058C229.262 91.6329 206.993 130.512 197.038 151.944C189.676 170.333 181.545 188.282 174.857 207.043C176.737 201.923 178.047 199.056 175.444 205.989C170.176 220.592 165.014 224.945 160.64 239.976C161.02 243.706 168.484 241.295 170.745 241.127C180.623 234.773 169.828 245.452 179.869 239.458C174.186 235.531 175.772 227.386 172.278 220.544C158.445 183.766 146.996 150.978 135.43 113.138L123.199 76.4297C113.58 83.3817 109.164 86.6898 99.5449 93.6419V93.6419Z" fill="#00FFEA"/>
<path d="M175.939 39.0498C114.936 39.0498 63.0498 88.6749 63.0498 151.006C63.0498 213.337 112.502 263.867 173.505 263.867C234.508 263.867 287.867 214.347 287.867 152.016C287.865 123.467 283.934 89.8023 261.624 74.9857C257.426 72.1978 248.637 73.0997 246.656 76.2595C249.556 79.1152 232.023 109.698 246.292 94.0877C269.454 68.748 280.628 128.755 280.63 153.535C280.629 212.29 231.912 259.242 174.409 259.241C116.908 259.24 76.8578 211.227 70.293 152.857C62.7696 85.9634 158.582 24.1616 222.284 66.4531C231.891 66.4536 206.734 58.9725 212.042 60.8384C235.149 68.962 201.39 103.453 177.217 174.574C175.649 179.188 177.217 174.574 177.217 174.574C185.199 158.397 182.237 162.586 204.264 124.117C217.459 98.102 274.471 40.4381 175.939 39.0498V39.0498Z" fill="#00FFEA"/>
</svg>
