<svg width="114" height="114" viewBox="0 0 114 114" fill="none" xmlns="http://www.w3.org/2000/svg">
<g filter="url(#filter0_i_581_78)">
<circle cx="57" cy="57" r="57" fill="black"/>
</g>
<path d="M35.3043 56.938C47.9874 47.8577 46.4856 76.8564 55.26 72.5044C60.9394 69.6875 67.9754 73.0018 67.9754 73.0018L52.3731 57.2949C53.411 57.2949 54.5139 57.1759 55.6816 56.938C56.8711 56.7003 58.0388 56.3218 59.1848 55.8031C60.3527 55.2625 61.4662 54.5815 62.526 53.7599C63.5855 52.9383 64.5154 51.9546 65.3156 50.8089C66.1372 49.6414 66.786 48.3009 67.2617 46.7875C67.7374 45.2741 67.9754 43.5554 67.9754 41.6312V36.2478C67.9754 35.2101 67.7916 34.0967 67.424 32.9076C67.078 31.7185 66.4941 30.6158 65.6723 29.5997C64.8722 28.562 63.8235 27.708 62.526 27.0378C61.2285 26.3459 59.639 26 57.7577 26H25.7419C25.1364 26 22.984 26.1242 22.4875 26.3729C21.9685 26.5891 21.5143 26.8918 21.1251 27.2809C20.7575 27.6701 20.4655 28.1241 20.2493 28.643C20 29.2411 20 29.7302 20 29.7302C20 29.7302 20.2485 64.6708 20.2486 72.2557M35.3043 48.863H52.3731C53.4326 48.7765 54.3949 48.5603 55.26 48.2145C56.1466 47.847 56.9034 47.3604 57.5306 46.7552C58.1792 46.1498 58.6766 45.4255 59.0227 44.5823C59.3686 43.7175 59.5417 42.7338 59.5417 41.6312V36.3127C59.5417 35.8371 59.4767 35.4803 59.3471 35.2425C59.239 34.9831 59.0875 34.7993 58.8929 34.6912C58.7199 34.5615 58.5253 34.4858 58.309 34.4642C58.1144 34.4426 57.9306 34.4318 57.7577 34.4318H29.921C29.921 34.4318 29.8935 34.331 29.921 36.1962C29.9486 38.0613 29.9209 61.9888 29.921 64.6708" stroke="url(#paint0_linear_581_78)" stroke-width="2" stroke-linecap="round" stroke-linejoin="round"/>
<path d="M81.6875 49.4758C83.8402 49.4758 85.7948 49.8362 87.5512 50.5569C89.3357 51.2488 90.8653 52.2434 92.1402 53.5406C93.4148 54.8091 94.392 56.3514 95.0719 58.1676C95.7801 59.9838 96.1342 61.9874 96.1342 64.1784V74.2971C96.1342 76.517 95.7801 78.5348 95.0719 80.3512C94.392 82.1384 93.4148 83.6809 92.1402 84.9781C90.8653 86.2464 89.3357 87.2411 87.5512 87.9617C85.7948 88.6536 83.8402 88.9997 81.6875 88.9997" stroke="url(#paint1_linear_581_78)" stroke-width="2" stroke-linecap="round"/>
<path d="M65.0957 58.5321C66.3512 58.5321 81.6899 58.1165 82.7142 58.5321C83.7549 58.9311 84.647 59.5046 85.3905 60.2526C86.1338 60.984 86.7037 61.8733 87.1002 62.9206C87.5133 63.9678 87.7197 65.1231 87.7197 66.3865V72.2211C87.7197 73.5011 87.5133 74.6646 87.1002 75.712C86.7037 76.7425 86.1338 77.6319 85.3905 78.3799C84.647 79.1113 83.7549 79.6848 82.7142 80.1003C81.6899 80.4993 80.5501 80.6989 79.2946 80.6989H65.0957" stroke="url(#paint2_linear_581_78)" stroke-width="2" stroke-linecap="round"/>
<path d="M65.0879 58.5442L65.0879 60.8336L65.0879 63.123" stroke="url(#paint3_linear_581_78)" stroke-width="2" stroke-linecap="round"/>
<defs>
<filter id="filter0_i_581_78" x="-8" y="-10" width="122" height="124" filterUnits="userSpaceOnUse" color-interpolation-filters="sRGB">
<feFlood flood-opacity="0" result="BackgroundImageFix"/>
<feBlend mode="normal" in="SourceGraphic" in2="BackgroundImageFix" result="shape"/>
<feColorMatrix in="SourceAlpha" type="matrix" values="0 0 0 0 0 0 0 0 0 0 0 0 0 0 0 0 0 0 127 0" result="hardAlpha"/>
<feMorphology radius="5" operator="erode" in="SourceAlpha" result="effect1_innerShadow_581_78"/>
<feOffset dx="-8" dy="-10"/>
<feGaussianBlur stdDeviation="15"/>
<feComposite in2="hardAlpha" operator="arithmetic" k2="-1" k3="1"/>
<feColorMatrix type="matrix" values="0 0 0 0 0.567948 0 0 0 0 0 0 0 0 0 1 0 0 0 0.38 0"/>
<feBlend mode="normal" in2="shape" result="effect1_innerShadow_581_78"/>
</filter>
<linearGradient id="paint0_linear_581_78" x1="43.9877" y1="26" x2="43.9877" y2="73.0018" gradientUnits="userSpaceOnUse">
<stop offset="0.52036" stop-color="white"/>
<stop offset="1" stop-color="white" stop-opacity="0.63"/>
</linearGradient>
<linearGradient id="paint1_linear_581_78" x1="88.9108" y1="49.4758" x2="88.9108" y2="88.9997" gradientUnits="userSpaceOnUse">
<stop offset="0.52036" stop-color="white"/>
<stop offset="1" stop-color="white" stop-opacity="0.63"/>
</linearGradient>
<linearGradient id="paint2_linear_581_78" x1="76.4077" y1="58.3474" x2="76.4077" y2="80.6989" gradientUnits="userSpaceOnUse">
<stop offset="0.52036" stop-color="white"/>
<stop offset="1" stop-color="white" stop-opacity="0.63"/>
</linearGradient>
<linearGradient id="paint3_linear_581_78" x1="65.0879" y1="60.8336" x2="64.0879" y2="60.8336" gradientUnits="userSpaceOnUse">
<stop stop-color="white"/>
<stop offset="1" stop-color="#00FFEA" stop-opacity="0.76"/>
</linearGradient>
</defs>
</svg>
