<svg width="334" height="287" viewBox="0 0 334 287" fill="none" xmlns="http://www.w3.org/2000/svg">
<path d="M98.1563 283.475C103.518 278.936 106.775 271.765 105.921 264.784C105.067 257.803 99.7766 251.386 92.9148 249.903C86.0529 248.421 78.2308 252.524 76.1466 259.24C74.9996 246.292 73.6778 232.802 66.807 221.775C60.5857 211.791 49.8102 204.647 38.132 203.369C26.4538 202.091 14.1582 206.918 6.87492 216.153C-0.408339 225.388 -2.19161 238.814 2.9094 249.417C6.66713 257.228 13.5902 263.041 20.8438 267.77C44.283 282.922 72.3952 289.084 100.008 285.121" fill="#F2F2F2" fill-opacity="0.5"/>
<path d="M18.4232 207.186C28.0591 215.05 36.8991 223.845 44.8152 233.444C57.2039 248.415 67.229 265.2 74.5412 283.215C75.0765 284.529 72.9465 285.101 72.4172 283.801C67.7672 272.411 62.0143 261.506 55.2409 251.24C44.6785 235.204 31.7381 220.875 16.8657 208.747C15.766 207.849 17.3326 206.296 18.4232 207.186V207.186Z" fill="white" fill-opacity="0.5"/>
<path d="M101.859 283.475C96.4976 278.936 93.2408 271.765 94.0949 264.784C94.949 257.803 100.239 251.386 107.101 249.903C113.963 248.421 121.785 252.524 123.869 259.24C125.016 246.292 126.338 232.802 133.209 221.775C139.43 211.791 150.205 204.647 161.884 203.369C173.562 202.091 185.857 206.918 193.141 216.153C200.424 225.388 202.207 238.814 197.106 249.417C193.348 257.228 186.425 263.041 179.172 267.77C155.733 282.922 127.62 289.084 100.008 285.121" fill="#F2F2F2" fill-opacity="0.5"/>
<path d="M181.592 207.186C171.956 215.05 163.116 223.845 155.2 233.444C142.811 248.415 132.786 265.2 125.474 283.215C124.939 284.529 127.069 285.101 127.598 283.801C139.562 254.524 158.662 228.719 183.15 208.747C184.249 207.849 182.683 206.296 181.592 207.186V207.186Z" fill="white" fill-opacity="0.5"/>
<path d="M117.77 128.865C127.689 128.865 135.73 120.809 135.73 110.871C135.73 100.933 127.689 92.876 117.77 92.876C107.851 92.876 99.8101 100.933 99.8101 110.871C99.8101 120.809 107.851 128.865 117.77 128.865Z" fill="#F2F2F2" fill-opacity="0.5"/>
<path d="M62.3943 48.8408H186.135V55.6239H78.1909C71.8442 55.6238 65.5596 56.8763 59.6961 59.3098C53.8325 61.7432 48.5047 65.31 44.0169 69.8064C39.5291 74.3028 35.9691 79.6409 33.5404 85.5158C31.1116 91.3906 29.8615 97.6873 29.8615 104.046V181.109H16.3216C15.7231 181.109 15.1491 180.871 14.7259 180.447C14.3027 180.023 14.065 179.448 14.0649 178.848V97.2632C14.0649 90.9043 15.315 84.6076 17.7438 78.7327C20.1726 72.8578 23.7325 67.5198 28.2203 63.0234C32.7081 58.5269 38.0359 54.9602 43.8995 52.5267C49.7631 50.0933 56.0476 48.8408 62.3943 48.8408Z" fill="#F2F2F2" fill-opacity="0.5"/>
<path d="M86.1948 283.853V180.818H116.322V283.853C116.321 284.545 116.046 285.209 115.557 285.699C115.068 286.189 114.406 286.464 113.714 286.465H88.8019C88.1107 286.464 87.4481 286.189 86.9593 285.699C86.4705 285.209 86.1956 284.545 86.1948 283.853Z" fill="#161D33" fill-opacity="0.41"/>
<path d="M7.69189 178.786V95.0035C7.70693 81.6659 13.0018 68.8788 22.4148 59.4476C31.8278 50.0164 44.5903 44.7114 57.9023 44.6963H185.555V181.689H10.5887C9.82068 181.688 9.08439 181.382 8.54133 180.838C7.99826 180.293 7.69277 179.556 7.69189 178.786ZM184.397 45.8572H57.9023C44.8975 45.872 32.4295 51.0547 23.2337 60.2682C14.038 69.4817 8.86532 81.9737 8.85061 95.0035V178.786C8.85112 179.248 9.0344 179.691 9.36024 180.017C9.68609 180.344 10.1279 180.527 10.5887 180.528H184.397V45.8572Z" fill="#161D33" fill-opacity="0.41"/>
<path d="M117.77 120.159C115.006 120.155 112.355 119.054 110.4 117.095C108.445 115.136 107.345 112.48 107.342 109.71V34.8286C107.341 34.3669 107.158 33.9242 106.832 33.5977C106.506 33.2713 106.065 33.0876 105.604 33.0871H65.0487C64.2806 33.0862 63.5444 32.7802 63.0013 32.2361C62.4582 31.692 62.1527 30.9542 62.1519 30.1847V2.90238C62.1527 2.13289 62.4582 1.39518 63.0013 0.851068C63.5444 0.30696 64.2806 0.000891054 65.0487 0H125.302C126.07 0.000880322 126.806 0.306948 127.349 0.851059C127.893 1.39517 128.198 2.13289 128.199 2.90238V109.71C128.196 112.48 127.096 115.136 125.141 117.095C123.186 119.054 120.535 120.155 117.77 120.159Z" fill="#9100FF" fill-opacity="0.23"/>
<path d="M190.191 43.5362C198.931 43.5179 207.32 46.9789 213.513 53.158C219.706 59.337 223.196 67.728 223.214 76.4849V171.863H288.102C290.709 171.857 293.211 172.889 295.058 174.732C296.905 176.575 297.946 179.078 297.951 181.689H157.167V76.4849C157.185 67.728 160.675 59.337 166.868 53.158C173.061 46.9789 181.45 43.5179 190.191 43.5362Z" fill="#161D33" fill-opacity="0.41"/>
<path d="M182.266 97.8489L189.104 126.151L322.868 93.7069L316.029 65.4052C315.947 65.0592 315.778 64.7397 315.54 64.4763C315.301 64.213 314.999 64.0143 314.664 63.8988C314.416 63.8115 314.153 63.7719 313.891 63.7823L236.57 23.6703C236.117 23.4385 235.596 23.3766 235.101 23.4957C234.606 23.6149 234.171 23.9072 233.872 24.32L196.608 76.3851L182.559 96.0184C182.534 96.0528 182.516 96.0923 182.507 96.1342C182.498 96.1761 182.499 96.2194 182.508 96.2612C182.222 96.738 182.135 97.3084 182.266 97.8489Z" fill="white" fill-opacity="0.5"/>
<path d="M182.507 96.2612C182.514 96.298 182.528 96.3331 182.548 96.3646C182.568 96.3961 182.594 96.4232 182.625 96.4445C182.661 96.4694 182.702 96.4867 182.745 96.4952C182.788 96.5037 182.833 96.5034 182.876 96.4942C182.946 96.4755 183.007 96.433 183.049 96.3738L183.097 96.3069L183.829 95.282L197.113 76.7275L234.366 24.6744C234.579 24.3794 234.89 24.1706 235.243 24.0858C235.596 24.001 235.968 24.0458 236.291 24.2122L313.013 64.0135L313.701 64.3715C313.729 64.3832 313.758 64.3933 313.787 64.4015C313.838 64.3921 313.891 64.387 313.944 64.3864C314.016 64.3623 314.076 64.3114 314.112 64.2444C314.13 64.209 314.142 64.1703 314.146 64.1305C314.149 64.0907 314.145 64.0505 314.133 64.0123C314.122 63.9741 314.103 63.9386 314.077 63.9078C314.052 63.8771 314.02 63.8516 313.985 63.833L313.89 63.7823L236.569 23.6703C236.116 23.4385 235.595 23.3766 235.1 23.4957C234.606 23.6149 234.17 23.9072 233.871 24.32L196.607 76.3851L182.559 96.0184C182.533 96.0528 182.515 96.0923 182.507 96.1342C182.498 96.1761 182.498 96.2194 182.507 96.2612Z" fill="#161D33" fill-opacity="0.41"/>
<path d="M222.681 99.1472L225.658 99.4782L247.757 101.931L262.406 103.556L263.271 103.652L281.552 89.3465L282.252 88.7985L286.569 85.4201L301.93 73.4005L302.023 72.5563L307.486 23.1496C307.561 22.4693 307.363 21.7871 306.936 21.2527C306.509 20.7182 305.889 20.3751 305.21 20.2986L232.294 12.2057C231.615 12.1314 230.934 12.3297 230.401 12.7572C229.868 13.1847 229.525 13.8065 229.448 14.4865L225.595 49.3369L223.458 68.6585L221.546 85.9442L220.66 93.9717L220.401 96.2969C220.328 96.9775 220.526 97.6597 220.953 98.1939C221.381 98.7282 222.002 99.071 222.681 99.1472Z" fill="#E6E6E6" fill-opacity="0.5"/>
<path d="M242.718 55.8404L274.303 59.3453L285.504 60.5879C285.999 60.6428 286.499 60.5996 286.977 60.4606C287.455 60.3217 287.901 60.0899 288.289 59.7783C288.678 59.4668 289.001 59.0816 289.241 58.6448C289.481 58.2081 289.632 57.7282 289.687 57.2328C289.742 56.7373 289.699 56.2358 289.56 55.7571C289.421 55.2783 289.19 54.8316 288.879 54.4424C288.568 54.0532 288.184 53.7293 287.748 53.4889C287.312 53.2486 286.833 53.0967 286.338 53.0418L272.407 51.4959L243.555 48.2906C242.556 48.18 241.554 48.4714 240.769 49.1007C239.985 49.7301 239.482 50.6458 239.371 51.6467C239.26 52.6475 239.55 53.6515 240.178 54.4379C240.806 55.2243 241.719 55.7287 242.718 55.8404Z" fill="white" fill-opacity="0.5"/>
<path d="M240.92 69.8397C241.001 69.8543 241.083 69.8689 241.166 69.8769L277.831 73.9466L283.952 74.6274C284.952 74.7382 285.954 74.4467 286.738 73.8171C287.523 73.1875 288.026 72.2715 288.136 71.2704C288.247 70.2693 287.956 69.2653 287.328 68.4791C286.699 67.6929 285.785 67.1891 284.786 67.0783L275.934 66.0971L246.891 62.8727L242.003 62.3301C241.026 62.2208 240.044 62.4967 239.266 63.0994C238.488 63.702 237.974 64.5843 237.833 65.5596C237.693 66.5348 237.936 67.5267 238.512 68.3254C239.088 69.1242 239.952 69.6672 240.92 69.8397V69.8397Z" fill="white" fill-opacity="0.5"/>
<path d="M236.77 82.252C237.07 82.7518 237.482 83.1755 237.972 83.4901C238.463 83.8048 239.019 84.0019 239.598 84.0662L254.625 85.7338L281.39 88.7047L281.396 88.7033L282.252 88.7988L286.57 85.4204C286.596 85.1637 286.596 84.905 286.57 84.6483C286.479 83.7865 286.097 82.9817 285.488 82.367C284.878 81.7522 284.077 81.3644 283.217 81.2677L279.5 80.8538L264.751 79.2186L254.139 78.0393L240.431 76.5172C239.728 76.4393 239.018 76.5598 238.38 76.8651C237.743 77.1704 237.203 77.6484 236.822 78.245C236.441 78.8416 236.235 79.533 236.225 80.241C236.216 80.9491 236.405 81.6457 236.77 82.252L236.77 82.252Z" fill="white" fill-opacity="0.5"/>
<path d="M257.878 38.7283L265.737 39.6004L269.208 39.9866L274.451 40.568C275.45 40.6787 276.452 40.3873 277.237 39.7577C278.022 39.1281 278.525 38.212 278.635 37.211C278.746 36.2099 278.455 35.2059 277.826 34.4197C277.198 33.6335 276.284 33.1296 275.285 33.0189L258.715 31.1815C257.716 31.0702 256.714 31.3611 255.93 31.9901C255.145 32.6191 254.642 33.5347 254.531 34.5355C254.42 35.5362 254.71 36.5402 255.338 37.3265C255.965 38.1128 256.879 38.6171 257.878 38.7283V38.7283Z" fill="white" fill-opacity="0.5"/>
<path d="M193.618 59.7491L203.199 99.4036L219.19 102.45L233.982 105.272L249.853 108.297L254.924 109.264C255.221 109.32 255.526 109.313 255.82 109.241C256.114 109.17 256.389 109.037 256.627 108.851L260.695 105.668L263.271 103.652L281.551 89.3464L269.928 41.2403C269.813 40.7617 269.563 40.3265 269.207 39.987C268.895 39.6866 268.513 39.4697 268.095 39.3564C267.678 39.2431 267.238 39.2369 266.818 39.3385L195.516 56.6324C194.852 56.7939 194.279 57.2128 193.923 57.7972C193.567 58.3816 193.458 59.0836 193.618 59.7491Z" fill="#9100FF" fill-opacity="0.23"/>
<path d="M215.588 91.296C215.825 92.2742 216.44 93.1181 217.297 93.6425C218.155 94.1668 219.185 94.3288 220.162 94.0928L262 83.9451C262.976 83.7069 263.818 83.0907 264.341 82.2315C264.865 81.3723 265.027 80.3403 264.792 79.3618C264.781 79.3133 264.767 79.2654 264.751 79.2186C264.484 78.2751 263.862 77.4719 263.017 76.9772C262.172 76.4826 261.169 76.3348 260.217 76.565L218.379 86.7127C217.403 86.9504 216.56 87.5665 216.037 88.4258C215.514 89.2851 215.352 90.3174 215.588 91.296Z" fill="white" fill-opacity="0.5"/>
<path d="M219.19 102.45L233.983 105.271L265.317 97.6712C266.294 97.4343 267.137 96.8183 267.66 95.9588C268.184 95.0993 268.345 94.0666 268.108 93.0879C267.872 92.1093 267.257 91.2648 266.399 90.7403C265.541 90.2158 264.511 90.0543 263.534 90.2912L221.696 100.439C220.822 100.649 220.051 101.166 219.525 101.897C219.398 102.071 219.286 102.256 219.19 102.45Z" fill="white" fill-opacity="0.5"/>
<path d="M249.854 108.298L254.925 109.265C255.222 109.321 255.527 109.313 255.821 109.242C256.114 109.171 256.389 109.038 256.628 108.852L260.696 105.668L249.854 108.298Z" fill="white" fill-opacity="0.5"/>
<path d="M224.018 70.0327C224.255 71.0109 224.87 71.8548 225.728 72.3791C226.585 72.9035 227.616 73.0654 228.592 72.8294L244.797 68.899C245.773 68.6608 246.615 68.0446 247.139 67.1854C247.662 66.3262 247.824 65.2943 247.589 64.3157C247.462 63.7898 247.224 63.2975 246.891 62.8725C246.442 62.2979 245.838 61.8647 245.151 61.6247C244.464 61.3847 243.722 61.348 243.014 61.5189L226.809 65.4494C225.833 65.6864 224.99 66.3024 224.466 67.1619C223.943 68.0214 223.782 69.054 224.018 70.0327V70.0327Z" fill="white" fill-opacity="0.5"/>
<path d="M233.982 105.271L249.855 108.297L254.925 109.265C255.221 109.32 255.526 109.312 255.82 109.241C256.113 109.17 256.388 109.037 256.627 108.852L260.698 105.667L259.269 106.014L256.253 108.371C256.083 108.504 255.887 108.598 255.677 108.649C255.467 108.7 255.249 108.706 255.037 108.666L251.284 107.951L235.41 104.924L233.982 105.271ZM281.395 88.7048L281.55 89.3444L282.254 88.7959L281.395 88.7048ZM233.982 105.271L249.855 108.297L254.925 109.265C255.221 109.32 255.526 109.312 255.82 109.241C256.113 109.17 256.388 109.037 256.627 108.852L260.698 105.667L259.269 106.014L256.253 108.371C256.083 108.504 255.887 108.598 255.677 108.649C255.467 108.7 255.249 108.706 255.037 108.666L251.284 107.951L235.41 104.924L233.982 105.271ZM233.982 105.271L249.855 108.297L254.925 109.265C255.221 109.32 255.526 109.312 255.82 109.241C256.113 109.17 256.388 109.037 256.627 108.852L260.698 105.667L259.269 106.014L256.253 108.371C256.083 108.504 255.887 108.598 255.677 108.649C255.467 108.7 255.249 108.706 255.037 108.666L251.284 107.951L235.41 104.924L233.982 105.271ZM182.266 97.8485L200.178 171.981C200.311 172.529 200.655 173.002 201.135 173.295C201.616 173.589 202.193 173.68 202.74 173.548L332.378 142.104C332.924 141.971 333.396 141.626 333.689 141.145C333.982 140.664 334.073 140.086 333.941 139.537L316.029 65.4048C315.947 65.0588 315.778 64.7393 315.54 64.4759C315.301 64.2126 314.999 64.0139 314.664 63.8984C314.416 63.8111 314.153 63.7715 313.891 63.7819C313.584 63.7908 313.284 63.8699 313.013 64.0131C312.888 64.0726 312.77 64.146 312.662 64.232L302.022 72.5559L286.571 84.6492L281.394 88.7004L281.395 88.7048L281.391 88.7058L262.408 103.553L259.269 106.014L256.253 108.371C256.083 108.504 255.887 108.598 255.677 108.649C255.467 108.7 255.249 108.706 255.037 108.666L251.284 107.951L235.41 104.924L219.523 101.897L184.726 95.2622C184.429 95.2033 184.123 95.2099 183.829 95.2816C183.434 95.3785 183.074 95.5872 182.793 95.883C182.686 95.9991 182.59 96.1257 182.508 96.2608C182.222 96.7376 182.135 97.308 182.266 97.8485ZM233.982 105.271L249.855 108.297L254.925 109.265C255.221 109.32 255.526 109.312 255.82 109.241C256.113 109.17 256.388 109.037 256.627 108.852L260.698 105.667L259.269 106.014L256.253 108.371C256.083 108.504 255.887 108.598 255.677 108.649C255.467 108.7 255.249 108.706 255.037 108.666L251.284 107.951L235.41 104.924L233.982 105.271ZM233.982 105.271L249.855 108.297L254.925 109.265C255.221 109.32 255.526 109.312 255.82 109.241C256.113 109.17 256.388 109.037 256.627 108.852L260.698 105.667L259.269 106.014L256.253 108.371C256.083 108.504 255.887 108.598 255.677 108.649C255.467 108.7 255.249 108.706 255.037 108.666L251.284 107.951L235.41 104.924L233.982 105.271ZM233.982 105.271L249.855 108.297L254.925 109.265C255.221 109.32 255.526 109.312 255.82 109.241C256.113 109.17 256.388 109.037 256.627 108.852L260.698 105.667L259.269 106.014L256.253 108.371C256.083 108.504 255.887 108.598 255.677 108.649C255.467 108.7 255.249 108.706 255.037 108.666L251.284 107.951L235.41 104.924L233.982 105.271Z" fill="white" fill-opacity="0.5"/>
<path d="M233.982 105.271L249.855 108.297L254.925 109.265C255.221 109.32 255.526 109.312 255.82 109.241C256.113 109.17 256.388 109.037 256.627 108.852L260.698 105.667L259.269 106.014L256.253 108.371C256.083 108.504 255.887 108.598 255.677 108.649C255.467 108.7 255.249 108.706 255.037 108.666L251.284 107.951L235.41 104.924L233.982 105.271ZM281.395 88.7048L281.55 89.3443L282.254 88.7959L281.395 88.7048ZM233.982 105.271L249.855 108.297L254.925 109.265C255.221 109.32 255.526 109.312 255.82 109.241C256.113 109.17 256.388 109.037 256.627 108.852L260.698 105.667L259.269 106.014L256.253 108.371C256.083 108.504 255.887 108.598 255.677 108.649C255.467 108.7 255.249 108.706 255.037 108.666L251.284 107.951L235.41 104.924L233.982 105.271ZM233.982 105.271L249.855 108.297L254.925 109.265C255.221 109.32 255.526 109.312 255.82 109.241C256.113 109.17 256.388 109.037 256.627 108.852L260.698 105.667L259.269 106.014L256.253 108.371C256.083 108.504 255.887 108.598 255.677 108.649C255.467 108.7 255.249 108.706 255.037 108.666L251.284 107.951L235.41 104.924L233.982 105.271ZM183.098 96.3065L183.177 96.3657C183.19 96.3441 183.213 96.3247 183.23 96.302C183.406 96.119 183.624 95.9825 183.865 95.9047C184.106 95.8269 184.363 95.8103 184.612 95.8563L219.192 102.447L233.982 105.271L249.855 108.297L254.925 109.265C255.221 109.32 255.526 109.312 255.82 109.241C256.113 109.17 256.388 109.037 256.627 108.852L260.698 105.667L259.269 106.014L256.253 108.371C256.083 108.504 255.887 108.598 255.677 108.649C255.467 108.7 255.249 108.706 255.037 108.666L251.284 107.951L235.41 104.924L219.523 101.897L184.726 95.2622C184.429 95.2033 184.123 95.2099 183.829 95.2816L183.098 96.3065ZM182.266 97.8485L200.178 171.981C200.311 172.529 200.655 173.002 201.135 173.295C201.616 173.589 202.193 173.68 202.74 173.548L332.378 142.104C332.924 141.971 333.396 141.626 333.689 141.145C333.982 140.664 334.073 140.086 333.941 139.537L316.029 65.4048C315.947 65.0588 315.778 64.7393 315.54 64.4759C315.301 64.2126 314.999 64.0139 314.664 63.8984C314.416 63.8111 314.153 63.7715 313.891 63.7819C313.584 63.7908 313.284 63.8699 313.013 64.0131C312.888 64.0726 312.77 64.146 312.662 64.232L302.022 72.5559L286.571 84.6492L281.394 88.7004L281.395 88.7048L281.391 88.7058L262.408 103.553L259.269 106.014L256.253 108.371C256.083 108.504 255.887 108.598 255.677 108.649C255.467 108.7 255.249 108.706 255.037 108.666L251.284 107.951L235.41 104.924L219.523 101.897L184.726 95.2622C184.429 95.2033 184.123 95.2099 183.829 95.2816C183.434 95.3785 183.074 95.5872 182.793 95.8829C182.686 95.9991 182.59 96.1256 182.508 96.2608C182.222 96.7375 182.135 97.308 182.266 97.8485ZM182.857 97.7053C182.804 97.4868 182.801 97.2592 182.847 97.0391C182.893 96.8191 182.988 96.6123 183.124 96.4337C183.137 96.4075 183.155 96.3843 183.177 96.3657C183.19 96.3441 183.213 96.3247 183.23 96.302C183.406 96.119 183.624 95.9825 183.865 95.9047C184.106 95.8269 184.363 95.8103 184.612 95.8564L219.192 102.447L233.982 105.271L249.855 108.297L254.925 109.265C255.221 109.32 255.526 109.312 255.82 109.241C256.113 109.17 256.388 109.037 256.627 108.852L260.698 105.667L263.273 103.652L281.55 89.3443L282.254 88.7959L286.568 85.419L301.932 73.3977L313.039 64.707C313.207 64.5751 313.402 64.4807 313.61 64.4301C313.669 64.4159 313.728 64.4062 313.787 64.4011C313.839 64.3916 313.892 64.3866 313.945 64.386C314.122 64.3843 314.299 64.4132 314.466 64.4713C314.706 64.5548 314.921 64.697 315.091 64.8848C315.262 65.0727 315.383 65.3003 315.443 65.547L333.355 139.68C333.402 139.874 333.41 140.076 333.38 140.273C333.349 140.471 333.279 140.66 333.176 140.831C333.072 141.002 332.935 141.15 332.774 141.268C332.613 141.385 332.43 141.47 332.236 141.517L202.598 172.96C202.207 173.054 201.794 172.989 201.451 172.779C201.108 172.568 200.862 172.23 200.768 171.838L182.857 97.7053ZM233.982 105.271L249.855 108.297L254.925 109.265C255.221 109.32 255.526 109.312 255.82 109.241C256.113 109.17 256.388 109.037 256.627 108.852L260.698 105.667L259.269 106.014L256.253 108.371C256.083 108.504 255.887 108.598 255.677 108.649C255.467 108.7 255.249 108.706 255.037 108.666L251.284 107.951L235.41 104.924L233.982 105.271ZM233.982 105.271L249.855 108.297L254.925 109.265C255.221 109.32 255.526 109.312 255.82 109.241C256.113 109.17 256.388 109.037 256.627 108.852L260.698 105.667L259.269 106.014L256.253 108.371C256.083 108.504 255.887 108.598 255.677 108.649C255.467 108.7 255.249 108.706 255.037 108.666L251.284 107.951L235.41 104.924L233.982 105.271ZM233.982 105.271L249.855 108.297L254.925 109.265C255.221 109.32 255.526 109.312 255.82 109.241C256.113 109.17 256.388 109.037 256.627 108.852L260.698 105.667L259.269 106.014L256.253 108.371C256.083 108.504 255.887 108.598 255.677 108.649C255.467 108.7 255.249 108.706 255.037 108.666L251.284 107.951L235.41 104.924L233.982 105.271Z" fill="#161D33" fill-opacity="0.41"/>
<path d="M298.59 127.54C298.298 126.326 298.499 125.044 299.148 123.978C299.798 122.911 300.843 122.146 302.055 121.851L318.417 117.882C319.628 117.593 320.904 117.797 321.965 118.448C323.026 119.1 323.787 120.146 324.079 121.358C324.372 122.57 324.174 123.849 323.527 124.915C322.881 125.98 321.839 126.746 320.63 127.043L304.268 131.012C303.056 131.305 301.777 131.103 300.713 130.453C299.648 129.802 298.885 128.754 298.59 127.54Z" fill="#9100FF" fill-opacity="0.23"/>
<path d="M117.77 113.773C120.01 113.773 121.826 111.954 121.826 109.71C121.826 107.466 120.01 105.646 117.77 105.646C115.531 105.646 113.715 107.466 113.715 109.71C113.715 111.954 115.531 113.773 117.77 113.773Z" fill="white" fill-opacity="0.5"/>
</svg>
