<svg width="100" height="84" viewBox="0 0 100 84" fill="none" xmlns="http://www.w3.org/2000/svg">
<path d="M21.3969 41.2112C37.4714 29.7026 35.5681 66.4559 46.6888 60.9401C53.8869 57.3699 62.8044 61.5705 62.8044 61.5705L43.0299 41.6634C44.3454 41.6634 45.7432 41.5126 47.2231 41.2112C48.7307 40.9099 50.2107 40.4302 51.6632 39.7727C53.1434 39.0876 54.5547 38.2245 55.8978 37.1832C57.2407 36.1419 58.4193 34.8952 59.4334 33.443C60.4747 31.9634 61.297 30.2644 61.9 28.3463C62.5029 26.4281 62.8044 24.2499 62.8044 21.8111V14.9882C62.8044 13.6729 62.5715 12.2618 62.1056 10.7547C61.667 9.24764 60.927 7.85016 59.8855 6.5623C58.8714 5.24706 57.5423 4.16469 55.8978 3.31526C54.2533 2.43842 52.2389 2 49.8544 2H9.27739C8.50996 2 5.78195 2.15744 5.15262 2.47263C4.49484 2.74664 3.91926 3.13026 3.42594 3.62348C2.96001 4.1167 2.59001 4.69212 2.31593 5.34975C2 6.10782 2 6.72766 2 6.72766C2 6.72766 2.31493 51.0117 2.31509 60.6249M21.3969 30.9768H43.0299C44.3728 30.8672 45.5924 30.5931 46.6888 30.1548C47.8125 29.6891 48.7717 29.0724 49.5666 28.3053C50.3887 27.5381 51.0191 26.6201 51.4577 25.5513C51.8961 24.4553 52.1155 23.2086 52.1155 21.8111V15.0704C52.1155 14.4676 52.0332 14.0155 51.8689 13.714C51.7318 13.3852 51.5399 13.1523 51.2932 13.0153C51.074 12.8509 50.8273 12.755 50.5532 12.7276C50.3066 12.7002 50.0736 12.6865 49.8544 12.6865H14.574C14.574 12.6865 14.5391 12.5588 14.574 14.9227C14.609 17.2866 14.5739 47.6125 14.574 51.0117" stroke="url(#paint0_linear_714_96)" stroke-width="2.61278" stroke-linecap="round" stroke-linejoin="round"/>
<path d="M80.1846 31.7534C82.913 31.7534 85.3902 32.2101 87.6162 33.1236C89.8779 34.0005 91.8166 35.261 93.4324 36.9052C95.0479 38.5129 96.2863 40.4676 97.148 42.7695C98.0457 45.0713 98.4944 47.6107 98.4944 50.3877V63.2121C98.4944 66.0256 98.0457 68.583 97.148 70.8851C96.2863 73.1503 95.0479 75.1052 93.4324 76.7493C91.8166 78.3568 89.8779 79.6175 87.6162 80.5308C85.3902 81.4077 82.913 81.8464 80.1846 81.8464" stroke="url(#paint1_linear_714_96)" stroke-width="2.61278" stroke-linecap="round"/>
<path d="M59.1553 43.2316C60.7464 43.2316 80.1869 42.705 81.4851 43.2317C82.8042 43.7373 83.9347 44.4641 84.877 45.4122C85.8192 46.3392 86.5414 47.4663 87.044 48.7936C87.5675 50.1209 87.8292 51.5851 87.8292 53.1864V60.5812C87.8292 62.2035 87.5675 63.6782 87.044 65.0056C86.5414 66.3117 85.8192 67.4389 84.877 68.3869C83.9347 69.3139 82.8042 70.0408 81.4851 70.5674C80.1869 71.0731 78.7423 71.326 77.1511 71.326H59.1553" stroke="url(#paint2_linear_714_96)" stroke-width="2.61278" stroke-linecap="round"/>
<path d="M59.1455 43.2468L59.1455 46.1484L59.1455 49.05" stroke="white" stroke-width="2.61278" stroke-linecap="round"/>
<defs>
<linearGradient id="paint0_linear_714_96" x1="32.4022" y1="2" x2="32.4022" y2="61.5705" gradientUnits="userSpaceOnUse">
<stop offset="0.541193" stop-color="white"/>
<stop offset="1" stop-color="#B24DFF"/>
</linearGradient>
<linearGradient id="paint1_linear_714_96" x1="89.3395" y1="31.7534" x2="89.3395" y2="81.8464" gradientUnits="userSpaceOnUse">
<stop stop-color="white"/>
<stop offset="0.765151" stop-color="#AF87CE" stop-opacity="0.76"/>
</linearGradient>
<linearGradient id="paint2_linear_714_96" x1="73.4922" y1="42.9976" x2="73.4922" y2="71.326" gradientUnits="userSpaceOnUse">
<stop stop-color="white"/>
<stop offset="0.765151" stop-color="white"/>
</linearGradient>
</defs>
</svg>
